<?xml version="1.0" standalone="no"?>
<!DOCTYPE svg PUBLIC "-//W3C//DTD SVG 20010904//EN"
 "http://www.w3.org/TR/2001/REC-SVG-20010904/DTD/svg10.dtd">
<svg version="1.0" xmlns="http://www.w3.org/2000/svg"
 width="979.000000pt" height="734.000000pt" viewBox="0 0 979.000000 734.000000"
 preserveAspectRatio="xMidYMid meet">

<g transform="translate(0.000000,734.000000) scale(0.100000,-0.100000)"
fill="#000000" stroke="none">
<path d="M4679 6505 c-3 -2 -59 -12 -125 -20 -376 -49 -767 -238 -1055 -512
-324 -308 -522 -698 -594 -1168 -9 -60 -18 -112 -21 -116 -2 -3 -29 -14 -61
-23 -526 -159 -850 -391 -1021 -731 -91 -182 -130 -365 -139 -640 -6 -201 14
-382 62 -565 200 -767 816 -1427 1661 -1778 65 -27 130 -53 144 -57 14 -4 39
-13 55 -20 117 -49 398 -120 655 -165 157 -27 510 -52 655 -46 178 6 500 39
594 60 417 93 593 149 871 278 485 225 877 535 1174 927 220 290 372 626 442
977 26 129 28 156 29 384 0 223 -2 255 -24 350 -91 400 -295 662 -664 853 -97
51 -342 150 -397 162 -39 8 -120 42 -120 49 0 3 -7 56 -16 118 -89 647 -508
1219 -1097 1497 -267 126 -557 191 -855 191 -82 0 -151 -2 -153 -5z m393 -260
c361 -50 669 -205 939 -474 265 -265 419 -562 470 -911 16 -108 16 -376 0
-499 -25 -201 -100 -420 -211 -616 -92 -165 -288 -377 -456 -493 -40 -27 -243
-74 -549 -125 -92 -15 -693 -15 -795 0 -279 43 -569 101 -612 124 -48 25 -178
142 -250 224 -212 242 -351 543 -404 875 -21 137 -14 417 15 565 65 335 222
628 467 870 364 361 872 530 1386 460z m-2142 -2092 c0 -7 -4 -13 -10 -13 -5
0 -10 9 -10 21 0 11 -4 17 -10 14 -6 -4 -8 -14 -5 -24 4 -13 -7 -22 -52 -41
-158 -65 -367 -204 -429 -285 -29 -38 -40 -95 -30 -150 13 -69 166 -195 353
-291 101 -52 340 -148 408 -165 28 -6 55 -15 60 -20 12 -9 84 -29 285 -79 314
-78 405 -94 705 -130 94 -11 206 -25 250 -32 109 -17 782 -17 885 -1 41 7 129
17 195 23 66 7 152 18 190 26 39 7 104 18 145 24 125 18 493 109 661 164 415
136 734 325 795 471 43 103 -48 219 -271 350 l-50 29 30 8 c24 6 22 6 -11 3
-24 -3 -48 1 -60 9 -34 23 -182 84 -190 77 -4 -3 -4 5 -1 19 3 14 9 55 13 92
8 79 -4 78 159 21 55 -19 123 -41 150 -50 69 -21 209 -88 275 -132 74 -48 156
-134 188 -195 36 -69 38 -197 4 -267 -12 -25 -22 -51 -22 -58 0 -13 -47 -101
-89 -166 -136 -212 -332 -428 -521 -577 -30 -23 -62 -49 -70 -57 -18 -18 -172
-131 -261 -194 -76 -52 -288 -176 -399 -232 -77 -40 -86 -44 -133 -71 -46 -25
-40 -11 11 29 61 46 210 198 258 262 20 28 41 52 46 53 4 2 8 10 8 18 0 17
-26 19 -36 3 -3 -6 -54 -34 -113 -61 -58 -27 -129 -60 -157 -73 -27 -13 -75
-33 -105 -45 -30 -11 -73 -30 -96 -40 -24 -11 -47 -20 -53 -20 -6 0 -18 -4
-28 -10 -26 -14 -163 -66 -197 -74 -16 -4 -43 -14 -60 -21 -16 -7 -57 -21 -90
-30 -33 -9 -67 -19 -75 -22 -48 -20 -373 -98 -490 -118 -306 -53 -367 -58
-695 -59 -293 0 -438 8 -555 34 -25 5 -85 16 -135 25 -214 35 -548 141 -757
240 -43 20 -78 38 -78 41 0 12 40 2 60 -16 26 -22 36 -25 45 -10 4 6 11 7 17
4 6 -4 5 -10 -3 -15 -11 -7 -11 -9 -1 -9 7 0 29 -7 50 -17 62 -27 104 -42 116
-39 6 2 7 1 2 -2 -15 -8 56 -33 76 -27 10 4 18 2 18 -4 0 -13 65 -33 92 -28
20 4 19 4 -4 6 -27 1 -41 21 -15 21 8 0 7 4 -3 10 -8 5 -12 10 -8 10 15 0 98
-56 98 -66 0 -7 22 -19 49 -28 55 -18 75 -20 67 -8 -3 4 10 13 27 20 25 9 29
9 16 -1 -39 -29 -16 -43 89 -53 37 -4 72 -10 77 -14 21 -16 76 -22 90 -10 9 7
22 9 32 5 16 -7 15 -9 -7 -16 -16 -5 13 -7 75 -5 70 3 88 1 60 -4 -38 -8 -38
-9 13 -6 28 2 52 -1 52 -7 0 -5 32 -7 78 -4 47 3 61 2 37 -3 -41 -7 136 -16
275 -13 36 0 100 1 143 2 42 0 77 5 77 10 0 14 -26 20 -67 16 l-38 -5 35 9
c19 5 56 7 83 4 37 -5 47 -3 44 8 -2 8 -2 11 0 7 3 -5 23 -9 46 -9 41 -1 41
-2 -11 -9 -29 -4 -56 -11 -60 -15 -4 -5 7 -5 24 -2 17 3 78 9 135 13 57 5 96
10 87 12 -26 5 -22 17 7 20 14 1 25 -3 25 -9 0 -19 82 1 102 25 11 13 17 16
18 7 0 -10 11 -12 43 -8 76 10 123 22 110 30 -7 4 -32 3 -56 -4 -25 -6 -53 -9
-63 -6 -12 3 -8 5 11 6 17 1 44 10 60 20 29 18 31 18 63 -1 17 -11 32 -15 32
-9 0 6 12 11 28 11 15 0 44 3 64 6 34 6 37 9 32 34 -4 19 -1 29 10 33 19 8 21
-4 4 -21 -10 -10 -10 -15 2 -22 17 -11 59 -4 98 16 15 8 37 14 50 14 13 0 21
4 18 9 -4 5 4 7 16 4 19 -4 20 -3 8 7 -12 9 -8 10 17 5 23 -5 39 -1 55 10 l23
17 -30 -5 c-26 -5 -31 -2 -31 14 0 15 7 19 36 19 41 0 54 8 41 24 -11 13 103
16 116 3 4 -5 -4 -6 -20 -2 -15 4 -27 5 -27 2 0 -18 14 -37 28 -37 13 0 12 3
-4 16 -16 13 -17 15 -1 10 9 -3 30 -3 46 0 22 5 28 11 24 23 -4 12 -3 13 5 2
6 -8 18 -11 31 -6 23 7 29 25 9 25 -9 0 -9 3 1 9 8 5 12 18 8 30 -6 24 11 29
19 6 4 -8 15 -15 26 -15 10 0 16 -5 13 -10 -4 -6 -11 -8 -16 -5 -5 4 -17 1
-26 -4 -17 -10 -16 -10 2 -11 32 0 99 26 86 34 -6 4 -15 4 -21 1 -5 -3 -10 -2
-10 4 0 5 -8 11 -17 14 -10 2 7 3 37 1 51 -4 68 0 150 34 22 9 21 10 -17 9
-24 -1 -43 -5 -43 -9 0 -4 -18 -8 -40 -8 -34 0 -40 3 -40 20 0 19 5 21 83 18
49 -1 91 3 104 10 29 16 38 15 23 -3 -16 -19 -9 -19 34 2 26 12 33 20 25 29
-7 9 -2 18 17 33 15 12 32 21 38 21 6 0 0 -9 -13 -19 -30 -23 -14 -34 30 -19
29 10 31 12 13 19 -10 4 -13 8 -6 8 7 1 10 6 6 12 -5 8 3 10 23 7 22 -3 34 1
42 14 15 24 14 31 -4 24 -10 -4 -15 1 -15 14 0 22 10 26 27 9 13 -13 36 -3 28
12 -7 11 -3 11 19 3 17 -7 22 -34 6 -34 -5 0 -10 -5 -10 -10 0 -7 7 -7 21 0
36 20 62 9 64 -26 1 -26 -2 -30 -17 -26 -10 2 -18 -1 -18 -9 0 -7 3 -9 7 -6 8
9 32 -24 33 -45 0 -21 16 -24 23 -5 2 6 8 8 13 4 13 -13 -24 -36 -47 -30 -14
4 -17 9 -10 16 17 17 13 26 -9 20 -11 -3 -20 -10 -20 -15 0 -6 -9 -8 -20 -5
-11 3 -18 1 -14 -4 3 -5 0 -9 -6 -9 -7 0 -9 -8 -5 -19 3 -12 0 -21 -9 -24 -11
-4 -13 -1 -10 11 4 13 2 13 -10 -3 -9 -11 -25 -29 -35 -41 -19 -20 -19 -20 15
-21 22 -1 33 3 32 11 -4 16 37 66 53 66 8 0 2 -11 -13 -25 -32 -27 -34 -35
-13 -35 8 0 15 5 15 10 0 6 7 10 15 10 9 0 18 6 21 14 3 8 17 17 31 21 15 3
38 15 51 26 14 10 28 19 33 19 17 0 75 46 72 57 -2 6 1 14 6 18 7 4 8 0 4 -11
-4 -12 5 -9 36 11 31 21 39 31 29 37 -9 6 -6 7 9 3 12 -3 24 -1 28 4 3 6 -6
13 -20 17 -24 6 -25 7 -8 21 10 8 13 12 7 9 -9 -4 -9 4 -3 32 5 20 9 40 9 45
0 8 30 10 30 1 0 -3 -8 -20 -18 -36 -13 -23 -14 -32 -4 -35 6 -3 10 -9 6 -14
-13 -21 8 -29 36 -13 23 14 27 23 24 49 -2 21 2 37 11 45 14 11 14 10 6 -13
-7 -18 -7 -28 0 -33 11 -6 93 46 84 54 -3 3 -16 -5 -29 -17 -14 -13 -31 -21
-38 -18 -8 3 -3 9 15 17 15 7 27 17 27 22 0 4 9 8 20 8 11 0 20 5 20 10 0 6 7
10 15 10 8 0 15 5 15 11 0 5 5 7 10 4 6 -3 10 -2 10 4 0 6 11 13 25 17 29 7
34 24 6 24 -14 0 -20 9 -23 33 -3 29 -1 33 14 29 13 -3 17 -10 13 -23 -8 -23
1 -24 21 -4 9 8 12 19 9 25 -3 5 -2 10 3 10 15 0 22 -28 9 -33 -7 -2 -10 -7
-7 -10 3 -4 18 4 33 17 15 13 24 26 21 29 -3 3 8 13 25 21 17 9 30 22 28 29
-1 6 4 11 12 9 19 -4 41 17 41 40 0 12 4 17 13 12 10 -6 10 -4 0 7 -25 26 -15
40 25 34 27 -4 32 -3 17 4 -18 9 -18 10 6 10 16 1 29 8 32 19 4 9 14 27 23 40
15 20 15 22 0 22 -10 0 -14 -4 -11 -10 3 -5 0 -10 -7 -10 -9 0 -14 13 -15 35
-1 19 1 35 4 35 3 0 18 -10 35 -21 25 -18 32 -19 39 -8 5 8 7 25 6 39 -2 14
-2 19 0 13 3 -7 9 -13 14 -13 6 0 7 5 4 10 -3 6 -1 10 4 10 17 0 48 35 43 48
-2 7 1 12 8 12 6 0 8 5 5 10 -3 6 -1 10 4 10 6 0 11 7 11 16 0 8 -5 12 -11 8
-8 -4 -9 1 -4 17 16 52 25 69 35 69 16 0 23 -27 11 -47 -6 -10 -11 -12 -11 -5
0 6 -5 12 -10 12 -6 0 -5 -8 2 -19 12 -19 12 -19 30 1 10 12 18 25 18 30 0 6
9 21 20 35 11 14 20 33 20 41 0 9 6 23 13 31 24 28 48 104 37 115 -13 13 -13
46 0 46 6 0 11 -10 11 -22 1 -13 5 -5 9 17 4 22 5 46 2 54 -3 9 -1 12 6 7 8
-5 12 2 11 21 -1 17 -3 21 -6 11 -2 -10 -9 -18 -14 -18 -5 0 -9 -7 -9 -15 0
-30 -17 -14 -18 18 -2 80 -24 157 -45 157 -5 0 -6 -8 -2 -17 4 -13 3 -15 -5
-7 -7 7 -8 19 -1 38 9 21 7 30 -7 44 -31 30 -72 53 -84 46 -7 -5 -9 -2 -5 9 7
17 -37 46 -83 54 -72 12 -170 15 -170 4 0 -7 22 -11 58 -11 l57 -1 -30 -24
c-30 -25 -55 -31 -68 -18 -11 10 -58 13 -52 2 4 -5 -1 -12 -10 -16 -16 -6 -16
-7 0 -15 11 -7 22 -5 34 6 23 21 31 20 31 -4 0 -12 -7 -20 -17 -20 -16 -1 -16
-2 1 -15 11 -8 25 -15 30 -14 6 0 5 3 -1 6 -20 8 -15 23 7 23 13 0 20 7 20 20
0 11 6 20 14 20 9 0 12 -7 9 -20 -3 -11 -10 -20 -15 -20 -6 0 -8 -7 -4 -15 3
-8 1 -15 -4 -15 -6 0 -10 -4 -10 -10 0 -18 20 -11 28 10 5 13 11 17 21 11 11
-7 9 -11 -8 -20 -11 -7 -21 -16 -21 -22 0 -6 4 -7 10 -4 16 10 52 -15 46 -31
-3 -9 -1 -12 4 -9 6 3 10 0 10 -8 0 -8 7 -20 15 -27 13 -11 15 -9 13 10 -2 13
3 25 12 27 13 4 13 3 0 -6 -8 -5 -11 -13 -7 -17 4 -4 16 1 26 10 20 18 41 14
41 -7 0 -8 -4 -7 -9 2 -8 12 -13 11 -30 -10 -11 -13 -20 -27 -21 -31 0 -14 21
-8 26 7 4 8 11 15 17 15 5 0 3 -8 -6 -18 -22 -24 -21 -37 4 -61 26 -24 21 -70
-18 -138 -14 -25 -19 -43 -12 -41 7 2 20 19 30 37 l18 33 -2 -35 c-1 -19 -5
-33 -8 -31 -4 2 -12 -3 -19 -11 -10 -12 -9 -15 5 -15 22 0 16 -34 -8 -38 -11
-2 -17 3 -17 16 0 24 -8 32 -25 25 -16 -5 -8 -34 12 -46 23 -14 15 -37 -11
-35 -14 1 -23 5 -20 9 2 4 -1 11 -7 15 -8 4 -7 9 2 15 7 4 10 11 6 15 -9 9
-18 1 -22 -23 -1 -10 -8 -17 -14 -16 -6 2 -11 -2 -11 -7 0 -6 -6 -10 -14 -10
-7 0 -19 -6 -25 -14 -9 -11 -8 -17 4 -29 8 -9 15 -22 15 -29 -1 -9 -4 -8 -13
4 -7 9 -19 18 -27 19 -23 5 -98 -34 -103 -54 -3 -11 -11 -15 -21 -11 -9 3 -16
2 -16 -3 0 -6 -25 -18 -55 -28 -30 -11 -55 -23 -55 -28 0 -5 -6 -7 -13 -4 -6
2 -18 -2 -25 -9 -11 -12 -7 -14 22 -14 19 0 42 -3 50 -6 15 -6 15 -8 -1 -20
-24 -18 -33 -17 -33 1 0 8 -4 15 -10 15 -5 0 -10 -7 -10 -16 0 -8 -5 -12 -10
-9 -6 4 -8 10 -6 14 3 4 -14 7 -37 8 -23 0 -36 -1 -29 -4 22 -9 13 -24 -12
-17 -14 3 -38 -2 -60 -14 -31 -17 -34 -21 -21 -32 12 -10 16 -9 21 4 9 23 39
20 53 -7 7 -13 11 -41 9 -63 l-4 -39 -13 33 c-10 24 -19 32 -37 32 -14 0 -24
6 -24 15 0 15 -29 35 -51 35 -8 0 -8 -4 1 -15 15 -18 7 -19 -22 -4 -14 8 -23
8 -31 0 -8 -8 -6 -11 8 -11 11 0 27 -4 35 -10 10 -6 4 -8 -22 -7 -20 1 -34 5
-31 10 2 4 -5 7 -16 7 -11 0 -23 -4 -26 -10 -3 -5 -14 -10 -25 -10 -10 0 -20
-6 -23 -14 -3 -8 -14 -13 -24 -10 -10 2 -38 -3 -63 -11 -31 -11 -36 -14 -15
-11 17 2 39 0 50 -4 17 -7 17 -9 3 -9 -10 -1 -18 -4 -18 -9 0 -6 -50 -7 -140
-1 -8 0 -66 -13 -129 -30 -63 -17 -126 -31 -140 -31 -23 -1 -24 -2 -8 -11 13
-8 32 -8 64 0 25 7 54 9 65 5 14 -4 18 -2 14 5 -5 7 5 11 28 11 39 0 51 -19
14 -21 -22 -1 -22 -1 2 -8 14 -4 -27 -7 -90 -7 -63 1 -121 5 -128 10 -7 4 -18
4 -25 -1 -7 -5 -39 -10 -72 -11 -48 -2 -64 -6 -78 -23 -14 -18 -24 -20 -57
-15 -43 7 -90 -9 -90 -31 0 -10 -12 -12 -51 -9 -28 3 -54 8 -58 12 -3 4 18 4
48 1 44 -5 51 -4 37 6 -12 9 -36 10 -84 5 -217 -26 -450 -39 -694 -41 -206 -2
-280 -5 -289 -14 -18 -18 -29 -16 -29 5 0 17 -12 20 -120 26 -66 4 -135 9
-153 12 -24 4 -28 3 -17 -5 13 -9 11 -11 -7 -11 -12 0 -24 -6 -27 -12 -5 -10
-7 -10 -12 0 -7 14 -44 16 -44 2 0 -5 9 -10 20 -10 13 0 20 -7 20 -19 0 -11 6
-21 13 -24 7 -2 8 -8 3 -13 -5 -5 -11 -4 -13 4 -3 6 -13 12 -23 12 -10 0 -20
-6 -23 -12 -2 -8 -8 -9 -13 -4 -5 5 -4 11 4 13 14 5 16 43 2 43 -5 0 -10 6
-10 14 0 9 18 17 48 23 l47 9 -80 8 c-61 5 -82 4 -90 -6 -5 -7 -17 -13 -25
-14 -8 -1 -34 -4 -56 -8 -28 -5 -44 -4 -49 4 -9 15 -5 19 36 26 26 4 30 3 19
-5 -12 -9 -11 -11 8 -11 12 0 22 5 22 11 0 6 9 8 20 4 11 -4 20 -2 20 4 0 7
-23 11 -57 11 -32 0 -68 3 -80 6 -20 6 -23 3 -23 -25 0 -17 -4 -31 -10 -31 -5
0 -10 17 -10 39 0 35 -3 39 -31 45 -17 3 -46 6 -64 6 -17 0 -46 5 -64 11 -25
9 -36 8 -56 -5 -27 -18 -60 -22 -50 -6 3 6 15 10 26 10 10 0 19 5 19 11 0 7
-12 10 -30 7 -16 -3 -30 0 -30 5 0 5 -23 6 -52 3 -34 -3 -44 -2 -28 3 l25 8
-28 12 c-16 6 -36 11 -46 11 -9 0 -41 7 -69 15 -47 14 -54 14 -68 0 -17 -17
-30 -19 -38 -6 -3 5 4 11 17 15 18 5 20 8 7 16 -19 13 -33 13 -25 0 3 -5 -1
-10 -10 -10 -9 0 -14 4 -10 10 3 5 -14 14 -37 21 -24 6 -53 16 -65 21 -12 6
-33 8 -47 6 -26 -5 -36 6 -13 15 6 3 -1 6 -16 6 -15 1 -46 10 -68 22 -39 20
-41 20 -54 2 -13 -17 -14 -16 -24 11 -8 20 -16 27 -29 23 -55 -18 -62 -19 -62
-8 0 6 7 8 17 4 11 -4 14 -3 9 5 -5 8 -1 10 10 5 11 -4 15 -3 11 4 -4 6 -30
17 -57 24 -28 7 -50 16 -50 21 0 4 -18 12 -40 18 -21 6 -45 17 -53 24 -7 7
-22 16 -34 20 -11 4 -28 15 -38 26 -10 11 -23 20 -29 20 -6 0 -24 7 -39 15
-27 14 -28 14 -22 -8 5 -20 5 -20 -8 -5 -7 9 -25 20 -40 23 -15 4 -27 14 -27
23 0 12 3 13 12 4 7 -7 19 -12 27 -12 11 1 6 9 -13 24 -39 32 -66 18 -66 -36
0 -33 3 -38 24 -38 13 0 26 5 28 12 3 7 11 9 24 4 17 -8 15 -10 -13 -18 -28
-7 -33 -13 -33 -38 0 -17 5 -30 13 -30 6 -1 -1 -7 -18 -14 -49 -20 -58 -2 -49
96 6 72 5 81 -9 75 -11 -4 -14 -2 -10 9 6 16 23 19 23 4 0 -5 7 -10 16 -10 14
0 14 3 4 15 -10 12 -10 15 1 15 9 1 6 7 -8 19 -38 32 -83 113 -84 150 0 29 -2
32 -9 16 -8 -19 -9 -19 -9 3 -1 12 3 22 9 22 5 0 17 17 27 38 9 20 19 40 21
45 2 4 -14 7 -36 7 -23 0 -43 -5 -45 -12 -3 -7 -5 7 -5 32 0 25 2 39 5 33 2
-8 22 -13 44 -13 28 0 39 -4 39 -15 0 -20 26 -19 34 1 10 26 7 34 -11 33 -11
0 -13 -3 -5 -6 6 -2 9 -9 6 -15 -12 -19 -19 9 -16 56 4 43 6 46 33 46 27 0 29
-3 30 -42 1 -24 3 -36 6 -27 2 10 13 19 24 22 20 5 17 37 -3 37 -6 0 -7 -7 -4
-16 3 -8 2 -12 -4 -9 -18 11 -10 26 20 36 17 6 30 17 30 25 0 20 -30 17 -46
-3 -12 -16 -13 -16 -14 -1 0 9 6 18 13 21 17 5 -9 37 -32 37 -14 1 -14 2 2 14
21 16 22 26 2 26 -8 0 -15 4 -15 10 0 13 34 30 60 30 19 0 21 -5 19 -45 -2
-36 2 -51 22 -76 24 -29 28 -30 50 -18 l24 13 -25 6 -25 6 25 9 c24 8 24 8 5
17 -16 6 -14 7 8 3 15 -3 27 -1 27 5 0 5 22 10 49 10 31 0 53 5 61 15 7 8 22
15 34 15 20 1 20 1 3 15 -18 13 -18 14 2 24 11 6 36 11 55 11 25 0 36 4 36 15
0 11 -11 15 -40 15 -29 0 -40 4 -40 15 0 11 12 15 50 15 38 0 50 4 50 15 0 8
-5 15 -10 15 -6 0 -15 11 -20 25 -5 14 -13 25 -18 25 -15 0 -44 -38 -37 -49 3
-6 1 -11 -5 -11 -6 0 -13 7 -16 15 -4 8 -18 15 -33 15 -24 -1 -24 -2 -8 -14
24 -18 21 -26 -8 -26 -18 0 -25 -5 -25 -20 0 -23 -10 -26 -28 -8 -19 19 -15
25 21 32 24 5 29 9 17 16 -8 5 -19 5 -25 1 -5 -5 -39 -16 -74 -25 -74 -19 -81
-23 -61 -37 11 -7 5 -9 -20 -5 -29 5 -31 4 -12 -4 35 -15 26 -22 -18 -15 -27
5 -40 3 -40 -5 0 -6 -5 -8 -11 -5 -15 10 -59 -34 -52 -51 3 -8 1 -14 -5 -14
-6 0 -12 5 -14 10 -5 17 -67 -14 -112 -54 -22 -20 -44 -36 -50 -36 -6 0 -5 -5
2 -12 18 -18 15 -85 -3 -92 -8 -3 -20 -17 -25 -31 -5 -14 -14 -25 -20 -25 -5
0 -10 -12 -10 -27 -1 -16 -7 -39 -15 -53 -24 -42 -20 -76 17 -140 4 -8 13 -27
19 -42 6 -16 15 -28 20 -28 5 0 9 -7 9 -15 0 -8 21 -38 47 -67 35 -39 53 -52
70 -50 22 3 33 -13 14 -20 -20 -7 129 -150 151 -144 7 1 10 1 5 -1 -11 -7 2
-23 20 -23 10 0 14 6 10 20 -3 11 -1 20 4 20 5 0 9 7 9 15 0 17 26 20 35 4 4
-6 -2 -13 -14 -16 -12 -3 -21 -10 -21 -15 0 -6 8 -7 18 -3 21 9 72 18 55 9 -7
-3 -13 -12 -13 -20 0 -9 -11 -14 -35 -14 -41 0 -46 -16 -10 -32 13 -6 22 -14
20 -18 -5 -8 32 -23 48 -21 5 1 6 -3 3 -8 -3 -5 2 -12 11 -15 23 -9 35 15 15
31 -22 16 1 17 27 1 16 -10 17 -14 5 -25 -12 -12 -11 -17 4 -33 9 -10 24 -20
31 -22 8 -2 24 -12 35 -24 15 -15 27 -19 41 -13 20 7 20 8 -1 8 -21 1 -30 31
-9 31 7 0 18 -7 25 -15 7 -8 22 -15 34 -16 20 -1 20 -1 -2 -7 -22 -7 -21 -8
12 -34 58 -46 97 -61 130 -49 15 6 30 20 33 31 3 11 14 20 24 20 16 0 19 -8
19 -46 0 -41 2 -46 20 -41 10 3 18 0 17 -5 -1 -6 12 -15 30 -20 31 -8 55 -28
34 -28 -5 0 -13 5 -16 10 -3 6 -16 10 -27 10 -11 0 -36 10 -55 21 -19 12 -37
18 -41 14 -16 -16 112 -68 150 -61 31 6 58 -1 58 -16 0 -5 -10 -6 -22 -3 -56
17 4 -15 73 -39 85 -29 89 -30 89 -16 0 6 -7 10 -15 10 -8 0 -15 5 -15 10 0 6
7 10 15 10 8 0 15 5 15 11 0 7 -9 9 -22 5 -53 -15 -81 -15 -38 -1 46 16 110
12 110 -5 0 -6 -7 -10 -15 -10 -8 0 -15 -4 -15 -10 0 -5 7 -10 15 -10 8 0 15
-4 15 -10 0 -5 -7 -10 -15 -10 -8 0 -15 -5 -15 -11 0 -7 15 -9 43 -5 26 4 35
3 23 -2 -18 -8 -18 -9 -2 -15 27 -10 46 -8 43 4 -1 6 5 14 13 16 13 4 13 3 0
-6 -12 -9 -11 -11 8 -11 12 0 22 5 22 10 0 6 7 10 16 10 14 0 14 -3 4 -15 -7
-8 -22 -15 -34 -15 -20 -1 -20 -1 -2 -11 13 -8 24 -8 40 1 12 6 40 10 62 7
l39 -4 -42 -1 c-54 -2 -56 -18 -3 -27 22 -4 40 -10 40 -14 0 -8 28 -14 190
-46 47 -10 94 -21 105 -26 11 -5 57 -11 102 -12 46 -1 75 -5 66 -8 -12 -4 -7
-8 16 -12 19 -4 40 -7 47 -7 20 0 17 18 -3 22 -10 2 13 4 50 5 51 0 70 -3 74
-14 4 -9 20 -13 52 -13 25 1 60 -2 76 -5 20 -5 27 -4 20 3 -5 5 -19 12 -30 15
-15 4 -13 5 8 6 15 0 27 -4 27 -10 0 -7 20 -10 58 -7 54 3 57 2 60 -22 5 -34
19 -47 34 -32 14 14 88 17 88 3 0 -12 132 -21 150 -10 8 4 10 9 5 9 -6 0 -21
18 -35 40 -14 22 -28 40 -32 40 -5 0 -8 7 -8 15 0 8 7 15 15 15 8 0 15 -7 15
-15 0 -8 4 -15 8 -15 5 0 14 -10 21 -23 10 -19 18 -22 56 -19 40 4 45 2 45
-16 0 -16 -8 -22 -32 -25 l-33 -4 33 -13 c23 -11 32 -21 32 -38 0 -13 -3 -22
-7 -20 -5 2 -21 10 -38 18 -16 8 -32 17 -35 21 -3 3 -68 9 -145 13 -331 16
-819 97 -1130 187 -621 179 -1079 442 -1358 779 -58 70 -120 201 -125 265 -13
164 111 314 352 425 62 29 348 129 411 144 9 2 44 -125 45 -161z m-70 98 c13
-25 13 -31 -1 -31 -5 0 -8 4 -5 9 3 5 -1 11 -9 15 -8 3 -15 10 -15 16 0 17 19
11 30 -9z m-212 -71 c37 -23 42 -43 10 -38 -16 2 -22 9 -21 23 1 11 0 14 -3 8
-3 -7 -12 -13 -20 -13 -9 0 -12 -4 -9 -10 3 -5 -1 -10 -9 -10 -21 0 -29 17
-11 24 8 3 12 12 9 21 -8 21 14 19 54 -5z m96 -59 c7 -11 -27 -21 -71 -21 -23
0 -33 5 -33 15 0 11 12 15 49 15 28 0 52 -4 55 -9z m4567 -45 c19 11 39 -19
39 -57 0 -29 -4 -39 -16 -39 -13 0 -15 9 -13 44 4 41 2 44 -19 42 -12 -2 -25
-6 -30 -11 -4 -4 -1 -5 6 -1 14 8 16 -16 6 -87 -7 -50 -24 -55 -24 -8 0 21 -6
30 -22 35 l-23 6 25 19 c23 18 24 20 6 27 -16 6 -14 9 15 25 19 9 36 13 37 8
2 -5 8 -6 13 -3z m-4914 -12 c-3 -3 -12 -4 -19 -1 -8 3 -5 6 6 6 11 1 17 -2
13 -5z m-37 -44 c0 -29 -4 -40 -15 -40 -11 0 -15 11 -15 40 0 29 4 40 15 40
11 0 15 -11 15 -40z m-46 1 c4 -5 0 -12 -6 -14 -10 -4 -9 -8 2 -16 10 -7 11
-11 3 -11 -8 0 -14 -16 -15 -42 l-1 -43 -4 43 c-3 29 -9 42 -19 42 -12 0 -12
4 3 25 19 26 29 30 37 16z m5076 -21 c0 -5 -4 -10 -10 -10 -5 0 -10 5 -10 10
0 6 5 10 10 10 6 0 10 -4 10 -10z m44 -15 c4 -14 11 -25 17 -25 6 0 7 -6 2
-12 -4 -7 -7 -40 -6 -73 1 -56 0 -54 -10 23 -7 57 -14 82 -23 82 -10 0 -14
-13 -14 -40 0 -29 -4 -40 -15 -40 -11 0 -15 11 -15 39 0 31 4 41 20 46 11 3
20 11 20 16 0 20 18 8 24 -16z m-5194 -145 c0 -11 -7 -20 -15 -20 -13 0 -14 4
-5 20 6 11 13 20 15 20 3 0 5 -9 5 -20z m114 -57 c-15 -23 -34 -28 -34 -8 0 9
5 13 10 10 6 -3 10 4 10 16 0 18 3 20 12 11 9 -9 10 -17 2 -29z m5000 16 c-6
-11 -24 -2 -24 11 0 5 7 7 15 4 8 -4 12 -10 9 -15z m-5124 -34 c0 -16 -6 -25
-15 -25 -16 0 -19 9 -9 34 9 25 24 19 24 -9z m131 -153 c-5 -2 -7 -11 -4 -20
4 -15 3 -15 -6 -2 -6 8 -9 29 -6 45 l6 30 -15 -25 c-19 -30 -21 -21 -4 16 l12
27 14 -34 c9 -22 10 -35 3 -37z m-161 38 c0 -5 -4 -10 -10 -10 -5 0 -10 5 -10
10 0 6 5 10 10 10 6 0 10 -4 10 -10z m37 4 c-3 -3 -12 -4 -19 -1 -8 3 -5 6 6
6 11 1 17 -2 13 -5z m-5 -56 c-7 -28 -17 -21 -19 12 -2 24 0 28 11 18 7 -7 11
-20 8 -30z m173 -8 c3 -5 -1 -10 -9 -10 -9 0 -16 5 -16 10 0 6 4 10 9 10 6 0
13 -4 16 -10z m5070 -27 c10 24 24 22 18 -3 -3 -11 -11 -20 -18 -20 -7 0 -15
-6 -18 -12 -8 -25 -18 0 -11 28 6 25 8 26 15 9 6 -18 7 -19 14 -2z m-5180 -74
c11 -17 -1 -21 -15 -4 -8 9 -8 15 -2 15 6 0 14 -5 17 -11z m5085 -3 c0 -8 -4
-18 -10 -21 -5 -3 -10 3 -10 14 0 12 5 21 10 21 6 0 10 -6 10 -14z m72 -8 c-5
-22 -26 -19 -30 5 -2 10 3 15 16 14 13 -1 18 -7 14 -19z m-327 -61 c-14 -11
-17 -22 -12 -45 7 -33 -1 -40 -21 -20 -26 26 -2 78 36 78 13 0 13 -2 -3 -13z
m-4725 -29 c0 -21 -3 -29 -10 -22 -5 5 -7 19 -4 32 9 31 14 27 14 -10z m4937
-30 c-3 -35 -6 -64 -6 -66 -1 -2 -15 -1 -32 2 -54 8 -84 50 -31 44 25 -3 27 0
30 40 3 35 7 42 24 42 19 0 20 -4 15 -62z m-4777 22 c0 -15 -7 -20 -24 -20
-14 0 -28 5 -31 10 -10 16 4 30 31 30 17 0 24 -5 24 -20z m149 -18 c13 -9 19
-18 13 -20 -15 -5 -82 28 -82 40 0 11 36 1 69 -20z m4311 -6 c0 -2 -7 -7 -16
-10 -8 -3 -12 -2 -9 4 6 10 25 14 25 6z m47 -12 c-3 -3 -12 -4 -19 -1 -8 3 -5
6 6 6 11 1 17 -2 13 -5z m-4479 -11 c-10 -2 -26 -2 -35 0 -10 3 -2 5 17 5 19
0 27 -2 18 -5z m-53 -33 c0 -22 -49 -24 -66 -4 -12 15 -12 17 0 9 11 -6 13 -4
9 7 -5 12 0 14 25 9 18 -4 32 -13 32 -21z m105 15 c0 -8 -6 -15 -14 -15 -17 0
-28 14 -19 24 12 12 33 6 33 -9z m4320 0 c0 -8 -4 -15 -9 -15 -13 0 -22 16
-14 24 11 11 23 6 23 -9z m-4132 -23 c2 -7 -3 -12 -12 -12 -9 0 -16 7 -16 16
0 17 22 14 28 -4z m4411 -19 c18 -20 20 -25 6 -20 -9 4 -23 7 -31 7 -8 0 -14
9 -14 20 0 27 12 25 39 -7z m-4378 2 c-18 -8 -38 -15 -45 -14 -15 1 46 28 64
28 8 0 0 -6 -19 -14z m-871 -44 c0 -51 8 -71 26 -64 16 6 19 -12 4 -22 -20
-13 -3 -156 19 -163 6 -2 11 -8 11 -14 0 -17 44 -108 52 -108 5 0 8 -8 9 -17
0 -11 3 -13 6 -5 7 19 22 14 16 -6 -2 -10 3 -25 13 -33 15 -13 16 -12 10 11
-6 21 -5 22 4 7 7 -10 9 -25 6 -33 -3 -9 1 -14 13 -14 11 0 26 -3 34 -6 11 -4
17 2 20 23 4 26 4 26 5 3 2 -30 -17 -62 -25 -42 -2 6 -10 12 -16 12 -6 0 11
-22 38 -50 31 -31 52 -46 56 -39 8 13 29 4 29 -12 0 -6 -5 -7 -11 -4 -6 5 -6
0 1 -11 14 -22 95 -74 116 -74 8 0 14 -4 14 -10 0 -5 10 -10 23 -10 17 0 19
-2 7 -10 -12 -7 -10 -11 10 -19 14 -5 39 -19 55 -30 42 -29 65 -27 65 4 0 18
5 25 20 25 11 0 20 5 20 10 0 6 5 10 10 10 19 0 10 -32 -10 -37 -15 -4 -18 -9
-10 -18 8 -10 4 -14 -17 -20 -21 -5 -24 -8 -12 -16 19 -12 32 -11 24 1 -7 12
-3 12 20 4 13 -5 14 -9 3 -15 -8 -6 1 -7 22 -3 l35 5 -29 -16 c-27 -16 -30
-16 -80 10 -87 47 -133 77 -244 159 -181 133 -290 264 -343 411 -21 60 -42
265 -26 265 4 0 7 -18 7 -39z m4810 19 c0 -5 -2 -10 -4 -10 -3 0 -8 5 -11 10
-3 6 -1 10 4 10 6 0 11 -4 11 -10z m320 -30 c0 -34 3 -40 22 -40 12 0 19 -3
15 -6 -3 -4 -18 -4 -32 0 -21 5 -25 12 -25 46 0 22 5 40 10 40 6 0 10 -18 10
-40z m-4937 -155 c159 -143 445 -314 677 -404 58 -23 119 -48 135 -55 61 -28
263 -83 530 -145 50 -11 122 -23 160 -27 39 -3 74 -9 80 -12 5 -3 28 -7 50 -8
22 -1 104 -7 183 -13 105 -8 195 -8 335 0 105 6 195 13 199 15 4 3 51 11 104
19 53 8 119 22 147 30 66 19 103 20 85 2 -6 -8 -23 -12 -37 -10 -24 4 -25 3
-8 -10 19 -16 23 -37 7 -37 -5 0 -10 -7 -10 -15 0 -20 -10 -19 -25 2 -9 12
-10 23 -4 35 10 19 -5 26 -16 8 -4 -6 -16 -8 -27 -4 -11 3 -23 1 -27 -4 -4 -6
-29 -13 -56 -16 -395 -37 -414 -38 -605 -31 -107 4 -221 8 -252 9 -32 1 -61 5
-64 9 -4 4 -26 7 -48 7 -30 0 -37 3 -26 10 11 7 0 9 -37 8 -29 -1 -47 -6 -40
-10 16 -10 3 -20 -17 -12 -9 4 -15 13 -12 20 4 9 -2 14 -16 14 -12 0 -18 -3
-15 -6 13 -13 -14 -45 -35 -42 -32 5 -35 28 -4 28 16 0 26 6 26 15 0 10 -10
15 -30 15 -16 0 -30 5 -30 11 0 8 -13 9 -41 5 -25 -4 -38 -3 -35 3 4 5 -20 15
-51 21 -32 6 -76 17 -98 25 -23 8 -50 15 -61 15 -11 0 -24 4 -29 9 -16 15
-115 32 -143 24 l-27 -7 25 -7 25 -7 -27 -1 c-15 -1 -30 4 -33 9 -3 6 -2 10 2
10 5 0 18 7 29 16 18 15 18 15 -8 11 -16 -2 -28 -1 -28 3 0 4 -17 15 -37 25
-21 10 -46 22 -56 27 -10 5 -26 6 -36 3 -12 -3 -21 0 -25 10 -7 20 -26 19 -55
-4 -20 -16 -27 -17 -38 -6 -16 17 -17 26 0 24 24 -3 47 1 47 9 0 9 -134 72
-155 72 -9 0 -13 5 -9 11 4 8 0 9 -15 4 -15 -4 -21 -3 -19 7 2 7 -4 13 -12 13
-8 0 -21 6 -29 13 -15 15 -37 10 -33 -7 2 -12 -11 -15 -21 -4 -4 3 1 11 9 18
14 10 12 14 -21 34 -43 25 -61 19 -25 -9 24 -19 24 -20 4 -20 -15 0 -24 8 -28
25 -5 19 -13 25 -32 25 l-26 0 23 21 24 20 -24 -7 c-14 -4 -21 -2 -17 4 7 12
-22 38 -32 27 -4 -4 -1 -10 5 -12 9 -3 10 -10 3 -22 -5 -10 -6 -21 -3 -25 3
-3 1 -6 -6 -6 -9 0 -12 13 -9 45 4 59 -15 54 -23 -6 l-6 -44 -1 43 c-1 23 -6
42 -11 42 -6 0 -12 -19 -14 -42 -4 -38 -4 -37 -4 10 0 28 5 52 10 52 6 0 8 3
5 6 -4 3 -18 -2 -32 -11 -14 -10 -32 -15 -41 -12 -8 4 -17 2 -20 -3 -7 -12
-35 -1 -35 14 0 6 8 20 16 31 15 19 15 19 8 -10 -6 -29 -6 -29 9 -10 9 11 17
25 17 32 0 6 5 13 12 15 7 3 4 11 -10 24 -12 10 -37 33 -55 50 -27 26 -35 29
-45 17 -11 -11 -9 -20 8 -48 12 -19 26 -35 31 -35 12 0 12 17 -1 25 -5 3 -15
16 -22 28 -10 20 -10 21 6 8 29 -24 37 -47 26 -76 -11 -30 -34 -29 -36 1 -2
27 -14 54 -26 54 -6 0 -8 -11 -6 -25 3 -13 2 -22 -3 -19 -4 2 -11 25 -15 49
-3 25 -10 45 -15 45 -5 0 -9 7 -9 15 0 19 5 19 35 -1 14 -9 25 -12 25 -6 0 5
-11 17 -25 26 -14 9 -25 23 -25 31 0 8 -6 18 -13 22 -8 4 -17 17 -21 28 -4 11
32 -18 79 -65 48 -47 92 -90 98 -95z m777 155 c0 -5 -7 -10 -15 -10 -8 0 -15
5 -15 10 0 6 7 10 15 10 8 0 15 -4 15 -10z m-320 -21 c0 -11 -4 -17 -10 -14
-5 3 -10 13 -10 21 0 8 5 14 10 14 6 0 10 -9 10 -21z m410 1 c0 -11 -7 -20
-15 -20 -13 0 -13 3 -3 20 7 11 14 20 15 20 2 0 3 -9 3 -20z m-140 -14 c0 -2
-7 -9 -15 -16 -12 -10 -15 -10 -15 4 0 9 7 16 15 16 8 0 15 -2 15 -4z m50 -16
c0 -5 -2 -10 -4 -10 -3 0 -8 5 -11 10 -3 6 -1 10 4 10 6 0 11 -4 11 -10z m156
-17 c35 -41 32 -72 -3 -37 -11 10 -26 14 -45 10 -31 -6 -39 13 -15 39 18 22
37 18 63 -12z m62 10 c-2 -10 -10 -18 -18 -18 -8 0 -16 8 -18 18 -2 12 3 17
18 17 15 0 20 -5 18 -17z m3709 -45 c-2 -13 -4 -3 -4 22 0 25 2 35 4 23 2 -13
2 -33 0 -45z m70 0 c-2 -13 -4 -3 -4 22 0 25 2 35 4 23 2 -13 2 -33 0 -45z
m251 35 c2 -8 -5 -13 -17 -13 -21 0 -35 13 -24 24 10 10 36 3 41 -11z m-4272
-4 c10 -17 -13 -36 -27 -22 -12 12 -4 33 11 33 5 0 12 -5 16 -11z m3809 -26
c5 -17 2 -23 -9 -23 -11 0 -16 10 -16 32 0 34 13 29 25 -9z m-3517 20 c-42 -6
-34 -25 10 -22 20 1 44 1 52 0 13 -1 13 -2 0 -11 -23 -15 -110 -13 -110 3 0
21 22 37 50 36 25 -2 25 -2 -2 -6z m4438 -50 c-16 -161 -36 -256 -76 -363 -26
-69 -73 -164 -82 -168 -5 -2 -8 -8 -8 -14 0 -6 -22 -47 -50 -92 -47 -79 -73
-99 -84 -69 -3 8 -2 12 2 9 5 -3 17 11 26 31 12 26 20 33 25 24 6 -9 12 -3 19
18 6 17 16 31 21 31 16 0 13 33 -4 56 -16 21 -20 44 -6 44 5 0 11 -13 15 -30
3 -16 10 -30 16 -30 13 0 13 23 -1 37 -6 6 -8 17 -3 25 6 9 10 6 15 -12 l6
-25 13 30 c7 17 17 40 23 52 6 13 8 26 5 29 -4 3 -9 -4 -13 -15 -3 -12 -11
-21 -17 -21 -5 0 -8 -6 -5 -14 4 -10 0 -12 -16 -8 -27 7 -47 26 -47 45 0 9 -5
17 -12 19 -8 3 -8 9 0 24 11 18 11 18 12 -3 0 -13 5 -23 10 -23 6 0 10 5 10
10 0 6 9 10 20 10 11 0 20 -5 20 -11 0 -13 25 -6 26 7 0 5 6 20 13 34 11 24
11 24 8 -7 -2 -18 -2 -33 -1 -33 2 0 11 17 20 38 10 20 20 41 22 46 3 5 -2 7
-11 3 -14 -5 -14 -2 -2 26 7 17 18 33 24 35 16 5 13 38 -5 57 -9 8 -14 24 -11
35 3 11 -3 26 -15 36 -16 15 -18 16 -13 2 9 -24 -32 -63 -50 -48 -11 9 2 30
71 113 46 55 84 104 84 109 0 4 3 8 6 8 3 0 3 -26 0 -57z m-1116 14 c8 -3 1
-6 -17 -6 -33 -1 -49 11 -38 30 5 7 12 6 23 -4 10 -8 24 -17 32 -20z m603 18
c1 -5 -6 -11 -15 -13 -11 -2 -18 3 -18 13 0 17 30 18 33 0z m-4263 -37 c-12
-4 -29 -4 -38 2 -15 8 -14 9 6 10 12 0 22 5 22 11 0 8 5 7 16 -2 14 -12 14
-14 -6 -21z m70 22 c0 -5 -5 -10 -11 -10 -5 0 -7 5 -4 10 3 6 8 10 11 10 2 0
4 -4 4 -10z m458 -6 c12 -4 22 -13 22 -20 0 -18 -17 -18 -27 0 -4 8 -17 16
-28 19 -11 3 -13 5 -5 6 8 0 25 -2 38 -5z m-1373 -59 c5 -26 4 -37 -2 -30 -6
6 -13 28 -16 49 -8 51 9 34 18 -19z m4192 29 c-3 -3 -12 -4 -19 -1 -8 3 -5 6
6 6 11 1 17 -2 13 -5z m-3277 -14 c0 -5 -7 -10 -15 -10 -8 0 -15 5 -15 10 0 6
7 10 15 10 8 0 15 -4 15 -10z m428 -28 c2 -7 -3 -12 -12 -12 -9 0 -16 7 -16
16 0 17 22 14 28 -4z m147 8 c3 -5 1 -10 -4 -10 -6 0 -11 5 -11 10 0 6 2 10 4
10 3 0 8 -4 11 -10z m65 -5 c0 -8 -4 -15 -8 -15 -5 0 -9 7 -9 15 0 8 4 15 9
15 4 0 8 -7 8 -15z m-690 -14 c0 -5 21 -8 48 -6 26 2 38 1 27 -2 -11 -3 -24
-12 -28 -19 -8 -15 -23 -10 -62 20 -18 14 -18 15 -2 16 9 0 17 -4 17 -9z
m3890 -16 c0 -8 -7 -15 -15 -15 -8 0 -15 7 -15 15 0 8 7 15 15 15 8 0 15 -7
15 -15z m239 2 c16 0 -16 -27 -33 -27 -5 0 -18 -7 -28 -17 -17 -15 -18 -15
-18 0 0 24 32 56 50 50 8 -3 21 -6 29 -6z m-4939 -52 c0 -7 4 -15 8 -17 5 -1
5 -14 2 -28 l-7 -25 -12 28 c-14 35 -14 70 -1 62 6 -3 10 -12 10 -20z m-33 -7
c-3 -8 -6 -5 -6 6 -1 11 2 17 5 13 3 -3 4 -12 1 -19z m3773 10 c0 -9 -18 -13
-58 -12 -85 2 -94 7 -27 14 33 4 66 7 73 8 6 1 12 -4 12 -10z m910 -3 c0 -8
-7 -15 -15 -15 -8 0 -15 7 -15 15 0 8 7 15 15 15 8 0 15 -7 15 -15z m-2605 -5
c4 -6 -7 -10 -25 -10 -18 0 -29 4 -25 10 3 6 15 10 25 10 10 0 22 -4 25 -10z
m1408 -7 c-7 -2 -19 -2 -25 0 -7 3 -2 5 12 5 14 0 19 -2 13 -5z m-2332 -20
c-19 -8 -45 -12 -58 -8 -41 10 -25 20 35 22 l57 1 -34 -15z m3449 -23 c0 -28
-4 -40 -14 -40 -8 0 -16 -6 -19 -12 -2 -7 -3 -4 -1 7 2 11 4 35 4 53 0 22 5
32 15 32 11 0 15 -11 15 -40z m-4512 -10 c7 -18 7 -32 1 -35 -5 -4 -9 1 -9 9
0 19 -16 21 -23 4 -2 -7 -8 -10 -12 -5 -5 4 -3 13 3 19 7 7 12 20 12 31 0 25
16 13 28 -23z m5326 15 c-4 -8 -13 -15 -21 -15 -8 0 -13 -5 -11 -12 3 -7 -8
-23 -24 -36 -16 -14 -27 -27 -24 -30 3 -3 12 1 21 8 12 10 15 10 15 -4 0 -9
-8 -16 -17 -16 -17 -1 -17 -2 1 -15 17 -13 17 -15 2 -36 -13 -20 -16 -20 -22
-6 -9 24 -27 21 -41 -8 -11 -24 -1 -46 12 -25 4 6 11 8 16 5 5 -4 2 -13 -7
-22 -12 -12 -18 -13 -23 -4 -6 9 -56 41 -65 41 0 0 1 -25 2 -55 4 -51 2 -55
-18 -55 -18 0 -20 3 -11 13 26 32 -35 37 -70 6 -18 -16 -20 -19 -6 -15 11 3
16 2 12 -4 -3 -6 -15 -10 -26 -10 -21 0 -26 -16 -7 -22 6 -2 8 -10 4 -16 -10
-17 -24 -15 -28 4 -2 13 -17 6 -68 -32 -36 -26 -67 -49 -69 -50 -1 -2 0 -8 5
-15 5 -9 11 -7 20 6 13 17 14 17 20 1 4 -10 2 -21 -5 -25 -12 -8 -16 -48 -13
-118 1 -31 6 -43 17 -43 11 0 15 -11 15 -40 0 -29 -4 -40 -15 -40 -11 0 -15
11 -15 40 0 29 -4 40 -15 40 -11 0 -15 11 -15 40 0 33 -3 40 -20 40 -13 0 -20
7 -20 19 0 26 -27 48 -42 33 -8 -8 -9 -12 -1 -12 6 0 13 -9 16 -20 5 -21 -14
-27 -47 -14 -15 6 -15 8 1 20 17 13 17 14 -2 7 -32 -10 -95 -57 -95 -70 0 -18
10 -16 26 5 12 16 13 15 14 -5 0 -12 9 -28 21 -37 13 -9 19 -21 16 -33 -4 -16
-6 -15 -12 5 -4 12 -11 22 -15 22 -5 0 -15 3 -23 6 -12 4 -14 0 -10 -14 2 -11
0 -23 -6 -26 -6 -4 -11 -2 -11 3 0 6 -16 11 -36 11 -19 0 -44 5 -55 11 -15 8
-25 5 -47 -11 l-27 -22 28 7 c21 6 27 4 27 -9 0 -9 8 -16 17 -16 9 0 13 -3 9
-7 -11 -11 -77 -13 -71 -2 11 16 -24 22 -55 9 -17 -7 -30 -20 -31 -29 0 -9 -3
-11 -5 -4 -4 9 -14 8 -40 -4 -23 -11 -30 -19 -22 -24 7 -4 18 -3 25 3 7 5 21
7 30 3 25 -11 -41 -25 -82 -18 -23 4 -27 2 -15 -6 12 -8 6 -11 -25 -12 -30 -2
-33 -3 -12 -6 29 -5 36 -20 12 -29 -8 -3 -22 1 -30 10 -22 21 -41 21 -24 -1
13 -15 11 -16 -12 -10 -38 9 -89 -10 -89 -34 0 -14 -7 -19 -27 -18 -17 1 -21
3 -10 6 9 2 17 9 17 14 0 8 -78 -16 -135 -41 -11 -5 -42 -16 -70 -24 l-50 -15
39 0 c22 -1 36 -4 32 -8 -10 -10 -75 -10 -69 0 6 9 4 9 -37 -4 -19 -6 -55 -15
-80 -19 l-45 -7 43 -2 c24 0 42 -6 42 -12 0 -8 -17 -10 -52 -7 -29 2 -69 1
-88 -3 -31 -7 -29 -8 13 -5 26 2 47 0 47 -5 0 -4 17 -10 38 -12 20 -2 14 -3
-15 -1 -75 4 -103 -12 -103 -58 0 -21 -4 -38 -10 -38 -15 0 -12 87 3 93 6 3
-2 6 -19 6 -17 1 -34 -2 -38 -6 -4 -4 -17 -8 -29 -8 -65 -3 -91 -7 -79 -12 26
-10 11 -24 -21 -18 -19 4 -50 0 -74 -8 -22 -8 -55 -12 -73 -9 -24 3 -31 1 -26
-7 4 -7 16 -9 27 -6 21 7 27 -10 6 -18 -18 -7 -53 15 -52 33 0 9 15 18 40 22
176 32 222 41 310 62 216 52 359 97 575 184 131 52 369 168 448 218 29 19 55
34 59 34 3 0 21 11 39 25 18 14 35 25 38 25 8 0 247 169 261 184 17 18 113 96
119 96 2 0 7 -8 9 -17 2 -10 3 -6 1 10 -2 15 0 27 5 27 5 0 51 43 102 95 91
92 114 111 103 80z m-5274 -5 c0 -5 -4 -10 -10 -10 -5 0 -10 5 -10 10 0 6 5
10 10 10 6 0 10 -4 10 -10z m1790 0 c0 -5 -18 -10 -40 -10 -22 0 -40 5 -40 10
0 6 18 10 40 10 22 0 40 -4 40 -10z m480 0 c0 -5 -18 -10 -40 -10 -22 0 -40 5
-40 10 0 6 18 10 40 10 22 0 40 -4 40 -10z m180 -5 c0 -10 10 -15 30 -15 17 0
30 -5 30 -11 0 -6 -8 -8 -17 -5 -10 3 -39 8 -65 12 -53 7 -63 20 -20 27 15 2
30 5 35 6 4 0 7 -6 7 -14z m220 5 c0 -13 -11 -13 -30 0 -12 8 -11 10 8 10 12
0 22 -4 22 -10z m223 3 c-13 -2 -33 -2 -45 0 -13 2 -3 4 22 4 25 0 35 -2 23
-4z m2403 -29 c-30 -21 -42 -17 -15 5 13 11 26 17 29 14 3 -2 -4 -11 -14 -19z
m-2351 6 c34 -5 -2 -7 -115 -7 -132 1 -148 2 -80 7 123 9 140 9 195 0z m2425
-5 c0 -8 -6 -15 -14 -15 -8 0 -20 -15 -27 -32 l-13 -33 -4 33 c-2 24 2 38 15
48 24 18 43 18 43 -1z m-3180 -5 c0 -5 -18 -10 -40 -10 -22 0 -40 5 -40 10 0
6 18 10 40 10 22 0 40 -4 40 -10z m458 3 c-10 -2 -28 -2 -40 0 -13 2 -5 4 17
4 22 1 32 -1 23 -4z m2046 -12 c3 -5 -1 -11 -9 -15 -9 -3 -15 0 -15 9 0 16 16
20 24 6z m-4694 -16 c0 -8 -4 -15 -10 -15 -5 0 -10 7 -10 15 0 8 5 15 10 15 6
0 10 -7 10 -15z m4390 0 c0 -8 -4 -15 -10 -15 -5 0 -10 7 -10 15 0 8 5 15 10
15 6 0 10 -7 10 -15z m247 3 c3 6 9 12 14 12 5 0 2 -11 -7 -25 -9 -14 -26 -25
-38 -25 -17 0 -19 2 -6 11 11 8 12 12 2 16 -6 2 -9 9 -6 14 3 6 12 5 22 -3 12
-10 16 -10 19 0z m-379 -20 c15 -15 16 -48 2 -48 -5 0 -10 7 -10 15 0 8 -9 15
-20 15 -11 0 -20 -7 -20 -15 0 -8 -4 -15 -10 -15 -14 0 -13 33 2 48 7 7 19 12
28 12 9 0 21 -5 28 -12z m99 -40 c-3 -8 -6 -5 -6 6 -1 11 2 17 5 13 3 -3 4
-12 1 -19z m53 7 c0 -8 -4 -15 -10 -15 -5 0 -10 7 -10 15 0 8 5 15 10 15 6 0
10 -7 10 -15z m-4183 -11 c-3 -3 -12 -4 -19 -1 -8 3 -5 6 6 6 11 1 17 -2 13
-5z m-119 -46 c-2 -34 -7 -43 -23 -45 -11 -2 -14 0 -7 3 6 3 12 23 12 45 0 21
5 39 11 39 6 0 9 -17 7 -42z m1355 35 c-7 -2 -19 -2 -25 0 -7 3 -2 5 12 5 14
0 19 -2 13 -5z m487 -33 c0 -33 -3 -40 -20 -40 -17 0 -20 7 -20 40 0 33 3 40
20 40 17 0 20 -7 20 -40z m260 0 c0 -22 -4 -40 -10 -40 -5 0 -10 18 -10 40 0
22 5 40 10 40 6 0 10 -18 10 -40z m90 36 c0 -2 -7 -6 -15 -10 -8 -3 -15 -1
-15 4 0 6 7 10 15 10 8 0 15 -2 15 -4z m310 -36 c0 -22 -4 -40 -10 -40 -5 0
-10 18 -10 40 0 22 5 40 10 40 6 0 10 -18 10 -40z m60 8 c0 -18 3 -43 6 -55 5
-19 2 -23 -16 -23 -18 0 -21 4 -16 23 3 12 6 37 6 55 0 17 5 32 10 32 6 0 10
-15 10 -32z m267 -30 c-2 -13 -4 -3 -4 22 0 25 2 35 4 23 2 -13 2 -33 0 -45z
m50 0 c-2 -13 -4 -3 -4 22 0 25 2 35 4 23 2 -13 2 -33 0 -45z m-639 12 c-2 -6
-8 -6 -18 0 -13 9 -13 11 0 20 15 10 25 0 18 -20z m2969 8 c-3 -8 -6 -5 -6 6
-1 11 2 17 5 13 3 -3 4 -12 1 -19z m-4927 -8 c13 -9 13 -10 0 -10 -13 0 -13
-1 0 -10 22 -14 43 -12 37 3 -4 11 2 10 29 -2 37 -17 46 -41 14 -41 -11 0 -20
7 -20 15 0 8 -4 15 -10 15 -5 0 -10 -5 -10 -11 0 -16 26 -39 44 -39 9 0 16 -7
16 -15 0 -8 -9 -15 -20 -15 -11 0 -20 6 -20 14 0 16 -21 26 -56 26 -17 0 -24
-6 -24 -20 0 -24 -6 -25 -26 -6 -19 20 -18 26 6 26 23 0 27 29 8 48 -9 9 -9
12 1 12 7 0 9 5 6 10 -8 13 5 13 25 0z m2090 0 c0 -5 -4 -10 -10 -10 -5 0 -10
5 -10 10 0 6 5 10 10 10 6 0 10 -4 10 -10z m1870 -15 c0 -11 -11 -15 -40 -15
-29 0 -40 4 -40 15 0 11 11 15 40 15 29 0 40 -4 40 -15z m-2050 -11 c0 -2 -7
-4 -15 -4 -8 0 -15 4 -15 10 0 5 7 7 15 4 8 -4 15 -8 15 -10z m2195 -12 c-8
-8 -25 10 -19 20 4 6 9 5 15 -3 4 -7 6 -15 4 -17z m-2788 -2 c21 -11 48 -20
60 -20 13 0 23 -4 23 -10 0 -13 -11 -13 -66 1 -24 6 -44 17 -44 24 0 7 -6 16
-12 18 -7 3 -10 6 -5 6 4 1 24 -8 44 -19z m1106 13 c-13 -2 -33 -2 -45 0 -13
2 -3 4 22 4 25 0 35 -2 23 -4z m-1183 -13 c0 -5 8 -10 17 -10 9 0 14 -2 11 -5
-3 -3 -19 -2 -37 1 -23 5 -29 9 -19 15 18 12 28 11 28 -1z m148 3 c-10 -2 -28
-2 -40 0 -13 2 -5 4 17 4 22 1 32 -1 23 -4z m952 -9 c0 -8 -4 -12 -10 -9 -5 3
-10 10 -10 16 0 5 5 9 10 9 6 0 10 -7 10 -16z m1460 6 c0 -5 -8 -10 -17 -10
-15 0 -16 2 -3 10 19 12 20 12 20 0z m197 4 c-3 -3 -12 -4 -19 -1 -8 3 -5 6 6
6 11 1 17 -2 13 -5z m-4067 -14 c0 -5 -4 -10 -10 -10 -5 0 -10 5 -10 10 0 6 5
10 10 10 6 0 10 -4 10 -10z m4073 -7 c-7 -2 -19 -2 -25 0 -7 3 -2 5 12 5 14 0
19 -2 13 -5z m-4103 -23 c0 -5 -4 -10 -10 -10 -5 0 -10 5 -10 10 0 6 5 10 10
10 6 0 10 -4 10 -10z m292 -7 c-6 -3 -10 -9 -6 -14 3 -5 -2 -9 -10 -9 -20 0
-20 5 0 25 9 9 19 13 23 9 3 -4 0 -9 -7 -11z m2128 -14 c0 -5 -4 -9 -10 -9 -5
0 -10 7 -10 16 0 8 5 12 10 9 6 -3 10 -10 10 -16z m37 -1 c-3 -8 -6 -5 -6 6
-1 11 2 17 5 13 3 -3 4 -12 1 -19z m1646 15 c-7 -2 -19 -2 -25 0 -7 3 -2 5 12
5 14 0 19 -2 13 -5z m642 -13 c3 -6 -1 -7 -9 -4 -18 7 -21 14 -7 14 6 0 13 -4
16 -10z m175 0 c0 -5 -9 -10 -20 -10 -11 0 -20 5 -20 10 0 6 9 10 20 10 11 0
20 -4 20 -10z m-4887 -7 c-7 -2 -19 -2 -25 0 -7 3 -2 5 12 5 14 0 19 -2 13 -5z
m300 0 c-7 -2 -19 -2 -25 0 -7 3 -2 5 12 5 14 0 19 -2 13 -5z m3764 1 c-3 -3
-12 -4 -19 -1 -8 3 -5 6 6 6 11 1 17 -2 13 -5z m-4193 -20 c3 -8 2 -12 -4 -9
-6 3 -10 10 -10 16 0 14 7 11 14 -7z m76 -1 c5 -4 -20 -23 -32 -23 -4 0 -12 9
-18 20 -10 19 -9 20 17 14 15 -4 30 -9 33 -11z m2073 10 c-7 -2 -19 -2 -25 0
-7 3 -2 5 12 5 14 0 19 -2 13 -5z m166 3 c-10 -9 -109 -14 -109 -6 0 6 26 10
57 10 31 0 54 -2 52 -4z m408 -58 c-2 -13 -4 -3 -4 22 0 25 2 35 4 23 2 -13 2
-33 0 -45z m980 56 c-3 -3 -12 -4 -19 -1 -8 3 -5 6 6 6 11 1 17 -2 13 -5z
m439 -3 c-3 -5 -19 -11 -36 -13 -33 -5 -29 7 5 15 32 8 36 7 31 -2z m-3616
-57 c0 -2 -11 -4 -25 -4 -18 0 -25 5 -25 20 0 20 1 20 25 4 14 -9 25 -18 25
-20z m1900 -13 c0 -11 -3 -11 -15 -1 -8 7 -15 22 -15 33 0 20 0 20 15 1 8 -10
15 -25 15 -33z m1673 21 c-10 -10 -20 -14 -22 -9 -2 5 3 13 10 18 24 15 30 10
12 -9z m631 -17 c-3 -7 -12 -11 -19 -8 -11 4 -12 8 -2 18 15 16 28 10 21 -10z
m66 5 c0 -13 -5 -18 -15 -14 -11 5 -12 9 -2 20 16 18 17 17 17 -6z m-4625 -22
c4 -3 2 -9 -4 -13 -6 -3 -11 -2 -11 3 0 6 -9 8 -19 5 -11 -3 -28 0 -37 5 -15
8 -9 10 23 8 23 -1 45 -5 48 -8z m145 -9 c0 -11 -4 -17 -10 -14 -5 3 -10 13
-10 21 0 8 5 14 10 14 6 0 10 -9 10 -21z m380 -19 c0 -33 -3 -40 -20 -40 -17
0 -20 7 -20 40 0 33 3 40 20 40 17 0 20 -7 20 -40z m4001 7 c-13 -13 -26 -3
-16 12 3 6 11 8 17 5 6 -4 6 -10 -1 -17z m-4532 -6 c8 -5 9 -11 3 -15 -5 -3
-15 1 -22 9 -14 16 -3 20 19 6z m634 2 c-7 -2 -21 -2 -30 0 -10 3 -4 5 12 5
17 0 24 -2 18 -5z m3967 -3 c0 -5 -4 -10 -10 -10 -5 0 -10 5 -10 10 0 6 5 10
10 10 6 0 10 -4 10 -10z m-4473 -20 c3 -11 9 -20 14 -20 5 0 9 -4 9 -8 0 -5
-13 -7 -30 -4 -20 3 -30 10 -30 21 0 35 29 43 37 11z m563 10 c0 -5 -15 -10
-32 -10 -25 0 -29 -3 -18 -10 11 -7 6 -8 -15 -5 -17 2 -32 4 -35 5 -9 2 64 28
83 29 9 0 17 -3 17 -9z m35 -28 c-3 -3 -11 0 -18 7 -9 10 -8 11 6 5 10 -3 15
-9 12 -12z m3828 -9 c-7 -17 -11 -16 -29 2 -14 13 -13 15 9 13 16 -1 23 -7 20
-15z m-2076 -15 c-3 -8 -6 -5 -6 6 -1 11 2 17 5 13 3 -3 4 -12 1 -19z m70 0
c-3 -8 -6 -5 -6 6 -1 11 2 17 5 13 3 -3 4 -12 1 -19z m-2310 -19 c-6 -10 -13
-15 -15 -9 -6 17 7 42 18 35 6 -4 5 -13 -3 -26z m73 15 c0 -8 -5 -12 -10 -9
-6 4 -8 11 -5 16 9 14 15 11 15 -7z m580 -5 c0 -5 -4 -9 -10 -9 -5 0 -10 7
-10 16 0 8 5 12 10 9 6 -3 10 -10 10 -16z m-700 -9 c0 -11 -4 -20 -9 -20 -14
0 -23 18 -16 30 10 17 25 11 25 -10z m2117 -5 c-4 -8 -11 -15 -17 -15 -6 0 -6
7 2 20 14 22 24 19 15 -5z m-2022 -4 c7 -12 -12 -24 -25 -16 -11 7 -4 25 10
25 5 0 11 -4 15 -9z m783 -19 c2 -7 -3 -12 -10 -12 -8 0 -15 7 -15 15 0 18 19
15 25 -3z m1132 1 c0 -16 5 -16 -50 1 l-45 14 47 -2 c31 0 48 -5 48 -13z m324
-9 c8 -31 -8 -54 -25 -37 -11 11 -2 63 11 63 4 0 11 -12 14 -26z m-1504 6 c13
-9 13 -10 0 -10 -8 0 -22 5 -30 10 -13 9 -13 10 0 10 8 0 22 -5 30 -10z m145
0 c-3 -5 -18 -10 -33 -9 l-27 1 25 8 c35 11 42 11 35 0z m905 0 c0 -5 -19 -9
-42 -9 -40 1 -41 2 -13 9 44 11 55 11 55 0z m2420 0 c0 -5 -4 -10 -10 -10 -5
0 -10 5 -10 10 0 6 5 10 10 10 6 0 10 -4 10 -10z m-2528 -45 c-3 -36 -1 -45
12 -45 9 0 16 -4 16 -10 0 -5 -18 -10 -40 -10 -22 0 -40 5 -40 10 0 6 7 10 16
10 13 0 15 9 12 45 -2 35 0 45 12 45 12 0 14 -10 12 -45z m-1672 25 c-19 -6
-21 -8 -6 -9 11 -1 17 -3 14 -6 -3 -3 -19 -2 -37 1 -39 8 -22 24 24 23 29 -1
29 -1 5 -9z m75 0 c-3 -5 1 -10 9 -10 9 0 16 -7 16 -15 0 -8 -8 -15 -17 -14
-23 1 -62 17 -44 18 7 1 11 7 7 16 -4 10 1 15 15 15 11 0 17 -4 14 -10z m113
-14 c5 -26 -7 -68 -18 -61 -15 9 -13 88 3 83 6 -3 14 -13 15 -22z m51 -18 c0
-35 -2 -39 -9 -21 -8 19 -3 63 6 63 2 0 4 -19 3 -42z m131 22 c0 -11 -4 -20
-10 -20 -5 0 -10 -10 -10 -22 0 -12 -3 -19 -6 -15 -9 9 5 77 16 77 6 0 10 -9
10 -20z m2132 -62 c-6 -6 -12 -6 -16 1 -4 6 -2 11 5 11 7 0 9 10 6 29 -3 16
-3 32 1 36 4 4 8 -10 10 -30 2 -21 -1 -42 -6 -47z m55 20 c-2 -13 -4 -3 -4 22
0 25 2 35 4 23 2 -13 2 -33 0 -45z m1916 34 c9 -8 20 -12 25 -8 4 4 -2 14 -12
22 -17 12 -18 14 -3 14 9 0 17 -5 17 -11 0 -6 7 -9 15 -5 19 7 19 -4 -1 -32
l-15 -22 -28 19 c-20 14 -31 17 -38 10 -8 -8 -11 -4 -10 14 2 26 18 26 50 -1z
m-1843 8 c0 -5 -4 -10 -10 -10 -5 0 -10 5 -10 10 0 6 5 10 10 10 6 0 10 -4 10
-10z m-1250 -20 c0 -5 -18 -10 -40 -10 -22 0 -40 5 -40 10 0 6 18 10 40 10 22
0 40 -4 40 -10z m-400 -20 c0 -17 -7 -20 -40 -20 -33 0 -40 3 -40 20 0 17 7
20 40 20 33 0 40 -3 40 -20z m1220 -6 c0 -8 -4 -14 -10 -14 -5 0 -10 9 -10 21
0 11 5 17 10 14 6 -3 10 -13 10 -21z m71 -14 c5 0 9 -8 9 -17 0 -9 8 -25 17
-35 15 -17 15 -20 3 -28 -8 -6 -31 -9 -50 -8 l-35 1 33 4 c19 3 32 10 32 19 0
8 -4 14 -10 14 -5 0 -10 11 -10 24 0 13 -5 26 -12 28 -8 3 -9 11 -3 24 8 18 9
18 12 -3 3 -13 9 -23 14 -23z m209 30 c0 -5 -9 -10 -20 -10 -11 0 -20 5 -20
10 0 6 9 10 20 10 11 0 20 -4 20 -10z m-2090 -21 c0 -5 -4 -9 -10 -9 -5 0 -10
7 -10 16 0 8 5 12 10 9 6 -3 10 -10 10 -16z m1070 1 c0 -5 -18 -10 -40 -10
-22 0 -40 5 -40 10 0 6 18 10 40 10 22 0 40 -4 40 -10z m3013 -2 c15 -12 13
-16 -13 -48 -17 -19 -55 -66 -87 -105 -77 -94 -231 -252 -322 -328 -40 -34
-96 -81 -124 -104 -28 -24 -57 -43 -64 -43 -7 0 -13 -4 -13 -8 0 -11 -217
-159 -300 -204 -122 -67 -371 -188 -388 -188 -4 0 -19 -7 -35 -15 -26 -13
-150 -56 -297 -103 -134 -42 -262 -70 -535 -115 -94 -15 -656 -15 -755 1 -41
6 -119 18 -172 27 -109 17 -340 71 -366 85 -9 5 -34 12 -54 15 -21 3 -38 10
-38 15 0 5 -6 7 -14 4 -8 -3 -36 3 -63 14 -26 11 -75 30 -108 42 -60 23 -100
41 -227 99 -37 17 -79 36 -93 41 -30 11 -24 34 7 24 14 -4 18 -2 14 5 -5 7 1
11 15 11 18 0 19 -2 9 -15 -16 -19 -13 -22 25 -30 20 -4 26 -3 17 3 -11 7 -10
10 3 16 23 8 40 -3 26 -17 -17 -17 -13 -24 14 -31 14 -4 23 -11 20 -16 -7 -11
25 -13 49 -4 9 3 16 12 16 19 0 8 5 17 10 20 5 3 10 -4 10 -15 0 -13 -8 -24
-20 -27 -11 -3 -17 -9 -14 -14 8 -14 34 -11 31 4 -1 7 11 13 28 15 24 3 28 1
18 -9 -21 -21 -15 -37 17 -44 16 -4 30 -10 30 -13 0 -8 66 -38 106 -48 17 -4
25 -3 21 3 -4 6 -19 13 -34 16 -41 9 -49 18 -57 60 -6 33 -5 37 14 37 13 0 20
-7 20 -19 0 -11 5 -23 10 -26 6 -3 10 -15 10 -25 0 -15 6 -18 37 -15 24 2 32
0 22 -6 -12 -7 -12 -9 0 -9 8 0 25 -9 37 -21 12 -11 25 -16 28 -11 3 5 -1 15
-9 22 -24 20 -18 26 36 28 l51 2 -4 -45 c-3 -42 -1 -46 22 -52 14 -4 41 -6 60
-4 81 5 101 4 113 -8 10 -11 3 -12 -38 -7 -68 8 -28 -9 57 -24 35 -7 68 -15
73 -20 6 -4 54 -13 107 -19 119 -14 128 -14 108 -1 -13 8 -13 10 2 10 9 0 18
-5 20 -10 2 -6 50 -14 110 -17 62 -3 105 -10 102 -15 -4 -6 74 -7 197 -4 228
6 318 14 297 27 -8 6 -9 12 -3 17 6 4 11 28 13 54 l4 47 -79 4 c-43 2 2 3 100
1 98 -1 182 -5 185 -9 4 -4 -38 -5 -92 -3 -55 2 -94 2 -88 0 16 -5 15 -89 0
-95 -33 -12 8 -18 74 -11 65 7 69 9 38 15 -21 5 -7 6 33 3 l67 -6 1 49 c1 26
3 40 6 31 5 -22 23 -24 23 -3 0 8 9 15 20 15 12 0 20 -7 20 -17 0 -35 15 -45
54 -38 40 8 47 20 16 30 -11 4 -18 11 -15 16 4 5 -3 9 -13 9 -11 0 -35 7 -53
15 l-34 14 31 1 c48 0 125 -29 122 -47 -2 -9 4 -18 12 -21 8 -3 12 -1 8 3 -4
5 -3 14 3 22 13 14 33 18 25 4 -9 -15 28 -23 39 -9 5 7 20 12 31 10 27 -4 101
34 82 41 -8 4 -7 6 5 6 9 1 17 -3 17 -8 0 -4 18 -3 40 2 50 14 53 28 4 20 -27
-4 -42 -1 -64 16 -30 22 -56 28 -45 11 3 -5 0 -10 -7 -11 -7 0 -2 -5 12 -11
22 -10 23 -12 6 -16 -20 -4 -36 13 -36 41 0 14 9 17 45 17 36 0 43 3 38 16 -4
11 -13 14 -32 9 -14 -4 -30 -8 -36 -9 -5 -2 -28 -7 -50 -13 -87 -24 -137 -33
-177 -33 -53 0 -41 -12 20 -21 29 -5 15 -5 -35 -2 -57 3 -83 2 -83 -6 0 -6 -5
-11 -11 -11 -5 0 -7 5 -3 12 5 8 -2 9 -27 4 -19 -3 -35 -11 -37 -16 -2 -6 -8
-10 -13 -10 -6 0 -8 4 -5 9 3 5 -57 7 -142 4 -101 -3 -183 1 -262 12 -63 8
-124 16 -135 16 -20 1 -154 32 -211 50 -17 5 -47 9 -68 9 -37 0 -75 14 -87 32
-3 5 -19 10 -35 11 -27 2 -29 0 -32 -40 -4 -53 -22 -57 -22 -5 0 21 -6 44 -12
51 -11 11 -8 12 12 8 23 -6 23 -5 -2 5 -16 7 -28 15 -28 20 0 11 -6 12 106
-26 54 -18 131 -41 169 -51 39 -9 86 -20 105 -25 54 -14 254 -39 361 -45 166
-10 413 14 624 60 385 85 765 303 985 564 36 42 48 51 74 50 25 -1 26 -3 8 -6
-25 -5 -62 -36 -62 -53 0 -5 -6 -10 -12 -10 -9 0 -8 -4 2 -11 13 -9 13 -10 -1
-6 -9 3 -20 2 -25 -1 -19 -14 -48 -68 -46 -84 2 -10 -2 -18 -7 -18 -6 0 -11 5
-11 10 0 6 -5 10 -12 10 -9 0 -9 -3 0 -12 16 -16 15 -43 -3 -58 -16 -14 -20
-40 -6 -40 5 0 12 11 15 25 4 14 11 25 17 25 6 0 8 -9 4 -19 -7 -24 11 -37 31
-20 22 18 28 4 9 -25 -18 -26 -35 -34 -35 -16 0 17 -28 11 -39 -7 -12 -20 -12
-17 -15 55 -1 23 2 42 6 42 4 0 8 5 8 10 0 6 -9 5 -22 -2 -32 -18 -38 -29 -27
-50 14 -26 2 -40 -22 -27 -16 8 -18 13 -8 25 6 8 9 14 5 14 -7 0 -106 -70
-106 -75 0 -6 60 26 65 36 4 5 12 9 18 9 7 0 4 -7 -5 -14 -28 -21 -21 -26 27
-21 40 4 45 2 45 -15 0 -21 24 -27 35 -10 4 6 11 8 16 4 6 -3 3 -12 -8 -20
-10 -7 -13 -13 -8 -13 17 0 45 26 37 34 -4 4 0 6 8 3 16 -5 46 19 36 29 -3 3
4 13 15 21 17 12 18 16 8 23 -10 6 -7 9 12 9 14 0 30 5 37 12 9 9 12 9 12 0 0
-7 -5 -12 -12 -12 -6 0 -9 -3 -5 -6 3 -3 15 -3 26 1 24 7 28 40 6 49 -8 3 -15
12 -15 21 0 8 7 15 15 15 8 0 15 -7 15 -15 0 -19 18 -20 22 0 2 10 7 12 18 5
13 -9 13 -11 0 -20 -8 -5 -11 -10 -6 -10 5 0 26 16 47 35 22 19 44 35 50 35 6
0 8 7 5 15 -3 10 -1 15 7 13 17 -4 70 39 58 46 -5 4 -19 -4 -30 -16 -12 -12
-21 -18 -21 -13 0 5 -10 -1 -23 -13 -15 -15 -27 -18 -37 -12 -12 8 -12 10 3
16 9 3 17 12 17 19 0 8 8 11 20 8 21 -6 29 20 10 32 -8 5 -7 11 1 21 17 20 38
18 32 -5 -6 -24 44 -36 64 -15 8 8 19 14 24 14 5 0 9 4 9 9 0 5 -13 3 -30 -5
-32 -16 -50 -12 -50 12 0 10 13 14 46 14 37 0 47 4 51 20 6 22 23 28 23 8 0
-9 3 -9 12 0 8 8 8 15 -3 28 -9 11 -9 15 -2 10 14 -8 53 10 53 24 0 6 -3 9 -7
9 -25 -4 -34 3 -31 24 2 12 8 21 13 19 6 -2 9 -10 7 -18 -3 -16 14 -19 23 -4
3 6 11 10 17 10 7 0 6 -6 -2 -15 -7 -8 -8 -15 -2 -15 5 0 15 7 23 16 10 13 10
17 -2 25 -10 8 -9 9 7 4 25 -6 43 23 22 36 -15 10 7 39 29 39 13 0 13 -3 3
-15 -20 -24 -6 -28 15 -5 10 11 13 20 7 20 -7 0 -9 11 -5 30 3 19 1 30 -6 30
-6 0 -11 -5 -11 -11 0 -5 -4 -7 -10 -4 -5 3 -10 13 -10 21 0 11 6 13 20 9 15
-5 21 0 26 19 4 17 13 26 25 26 21 0 25 -20 8 -37 -14 -14 -4 -47 11 -38 6 4
8 15 5 26 -4 13 -2 19 9 19 20 0 21 26 1 34 -8 3 -15 12 -15 20 0 8 -6 16 -12
19 -7 2 -2 2 12 1 14 -2 36 3 50 11 31 18 32 18 53 3z m-2058 -18 c18 -8 17
-9 -7 -9 -16 -1 -28 4 -28 9 0 12 8 12 35 0z m1895 -5 c0 -8 -4 -15 -10 -15
-5 0 -10 7 -10 15 0 8 5 15 10 15 6 0 10 -7 10 -15z m-4088 -7 c-9 -9 -15 -9
-24 0 -9 9 -7 12 12 12 19 0 21 -3 12 -12z m118 -3 c0 -9 -6 -12 -15 -9 -8 4
-15 10 -15 15 0 5 7 9 15 9 8 0 15 -7 15 -15z m2154 7 c6 -10 -102 -37 -110
-29 -3 3 13 8 35 12 23 4 41 11 41 16 0 11 27 12 34 1z m1366 -12 c0 -5 -5
-10 -11 -10 -5 0 -7 5 -4 10 3 6 8 10 11 10 2 0 4 -4 4 -10z m138 -33 c2 -12
-3 -17 -17 -17 -12 0 -21 6 -21 13 0 31 32 34 38 4z m-4448 -56 c117 -69 177
-100 284 -146 58 -25 109 -45 112 -45 4 0 25 -9 48 -19 77 -36 346 -112 481
-136 520 -93 851 -105 1310 -50 116 14 217 28 225 31 8 3 60 14 115 25 156 30
396 99 499 143 53 24 56 14 4 -17 -92 -53 -128 -67 -153 -61 -25 6 -36 -11
-12 -19 6 -2 5 -3 -3 -2 -8 2 -24 6 -34 11 -11 4 -17 4 -14 -2 3 -5 -9 -9 -27
-10 -19 0 -41 -6 -49 -13 -9 -7 -38 -15 -65 -17 -28 -2 -62 -9 -76 -14 -14 -6
-40 -10 -56 -10 -21 0 -29 -5 -29 -17 0 -15 -9 -18 -62 -16 -34 1 -71 -3 -82
-9 -11 -6 -45 -11 -75 -12 -70 -1 -78 -17 -11 -22 33 -3 50 0 50 7 0 8 4 8 15
-1 17 -14 50 -6 40 10 -4 7 14 9 52 6 70 -5 63 -3 63 -21 0 -18 -4 -18 -46 -3
-26 9 -38 9 -57 -1 -13 -7 -33 -12 -43 -10 -10 1 -27 -1 -36 -4 -10 -4 -25 -9
-33 -12 -22 -6 -18 -25 4 -25 33 0 33 -17 1 -29 -23 -8 -30 -7 -29 2 1 7 1 24
0 40 -1 23 -5 27 -30 27 -17 0 -31 6 -35 15 -4 12 -10 13 -23 6 -10 -5 -58 -9
-106 -10 -49 -1 -93 -3 -98 -7 -5 -3 -121 -5 -259 -4 -244 0 -250 0 -250 -20
0 -17 -7 -20 -40 -20 -33 0 -40 3 -40 19 0 11 8 22 18 25 9 2 -11 4 -45 3 -33
-1 -59 1 -57 4 2 4 -19 9 -47 12 -35 4 -63 1 -91 -10 -37 -15 -41 -15 -50 0
-5 10 -17 17 -28 17 -10 0 -20 4 -22 9 -1 5 -23 11 -48 12 -43 3 -45 2 -43
-24 1 -19 -3 -27 -14 -27 -10 0 -14 6 -10 19 2 10 1 24 -3 31 -12 20 -32 0
-27 -26 4 -21 0 -24 -22 -23 -17 1 -20 3 -8 6 23 6 21 27 -6 56 -17 19 -38 27
-82 33 -60 7 -74 8 -152 12 -40 2 -63 22 -26 22 29 0 1 15 -51 28 -40 10 -51
10 -58 0 -6 -10 -8 -9 -8 3 0 11 -22 22 -71 37 -39 12 -75 19 -80 16 -5 -3 -9
2 -9 10 0 10 -9 16 -24 16 -13 0 -27 6 -30 13 -3 8 -8 7 -16 -5 -8 -13 -24
-18 -56 -18 -42 0 -45 -1 -42 -26 2 -15 -3 -29 -9 -31 -9 -3 -13 6 -13 26 0
17 -4 31 -10 31 -5 0 -10 -3 -10 -7 0 -5 -3 -18 -6 -30 -4 -15 0 -23 15 -28
11 -3 20 -11 18 -17 -1 -6 13 -21 31 -34 27 -19 37 -21 52 -12 26 16 21 53 -7
53 -24 0 -30 -9 -13 -20 12 -7 13 -25 2 -25 -15 0 -53 41 -47 51 7 10 65 12
89 3 10 -4 16 -18 16 -40 0 -19 7 -45 16 -59 15 -23 14 -23 -7 -18 l-22 6 19
-26 c10 -15 24 -27 29 -27 6 0 16 -9 23 -20 7 -11 18 -20 25 -19 9 0 9 2 -1 6
-6 2 -10 9 -7 13 8 13 34 0 29 -14 -9 -22 29 -55 58 -49 30 6 67 -10 49 -21
-6 -4 -11 -2 -11 3 0 6 -7 11 -15 11 -8 0 -15 -4 -15 -9 0 -14 28 -33 39 -26
6 3 8 0 5 -8 -6 -17 52 -51 69 -40 6 4 7 1 2 -7 -6 -10 -4 -12 9 -7 10 4 27 7
38 7 16 0 18 3 10 13 -15 17 6 87 25 87 16 0 16 -13 3 -62 -10 -36 -9 -40 22
-70 18 -18 39 -31 46 -30 6 2 12 -2 12 -8 0 -13 -27 -13 -35 0 -7 12 -35 14
-35 3 1 -11 92 -53 113 -53 10 0 17 -4 17 -10 0 -24 -51 -5 -161 62 -65 39
-129 82 -143 95 -14 12 -28 23 -31 23 -7 0 -124 90 -175 135 -130 113 -304
304 -403 443 -43 60 -46 71 -14 48 12 -9 51 -33 87 -55z m4717 32 c-3 -10 -5
-4 -5 12 0 17 2 24 5 18 2 -7 2 -21 0 -30z m-2487 17 c0 -5 -18 -10 -40 -10
-22 0 -40 5 -40 10 0 6 18 10 40 10 22 0 40 -4 40 -10z m-1365 -20 c13 -6 15
-9 5 -9 -8 0 -22 4 -30 9 -18 12 -2 12 25 0z m244 6 c-2 -2 -31 -6 -64 -9 -37
-3 -51 -2 -35 3 25 8 107 13 99 6z m961 -6 c0 -5 -18 -10 -40 -10 -22 0 -40 5
-40 10 0 6 18 10 40 10 22 0 40 -4 40 -10z m350 6 c0 -2 -7 -9 -15 -16 -12
-10 -15 -10 -15 4 0 9 7 16 15 16 8 0 15 -2 15 -4z m130 -5 c-58 -18 -80 -21
-80 -12 0 9 36 17 85 19 15 0 13 -2 -5 -7z m-1440 -31 c0 -11 -90 -11 -135 0
-22 5 -7 8 53 9 49 1 82 -3 82 -9z m3607 -22 c-3 -8 -6 -5 -6 6 -1 11 2 17 5
13 3 -3 4 -12 1 -19z m-592 -8 c4 -6 -9 -10 -32 -9 -38 1 -38 1 -8 9 17 4 31
8 32 9 1 0 5 -3 8 -9z m625 0 c0 -5 -4 -10 -10 -10 -5 0 -10 5 -10 10 0 6 5
10 10 10 6 0 10 -4 10 -10z m-3381 -14 c-2 -2 -26 -6 -54 -10 -34 -4 -45 -3
-35 4 14 9 99 15 89 6z m171 -12 c0 -2 -12 -4 -27 -4 -21 0 -24 3 -14 9 13 8
41 5 41 -5z m210 7 c0 -6 17 -12 38 -14 20 -2 11 -3 -20 -1 -56 4 -90 -11 -46
-19 13 -2 7 -2 -12 1 -19 2 -64 8 -100 11 l-65 7 45 7 c25 4 68 9 95 10 28 2
53 4 58 5 4 1 7 -2 7 -7z m237 3 c-3 -3 -12 -4 -19 -1 -8 3 -5 6 6 6 11 1 17
-2 13 -5z m252 -6 c-14 -5 -43 -4 -65 1 -36 8 -35 9 25 8 49 0 59 -3 40 -9z
m-311 -5 c-10 -2 -18 -11 -18 -19 0 -8 -8 -14 -17 -14 -14 0 -15 2 -4 9 10 6
6 11 -15 19 -27 10 -25 10 21 10 28 0 42 -2 33 -5z m2142 -34 c0 -25 -33 -22
-38 4 -2 12 3 17 17 17 15 0 21 -6 21 -21z m-128 -1 c30 -18 52 -38 39 -38
-18 0 -65 21 -72 32 -4 7 -9 7 -13 -1 -4 -6 -2 -11 3 -11 6 0 11 -7 11 -15 0
-17 -25 -20 -35 -5 -3 6 -2 10 4 10 5 0 8 9 6 20 -5 24 23 27 57 8z m-92 -58
c0 -5 -4 -10 -10 -10 -5 0 -10 5 -10 10 0 6 5 10 10 10 6 0 10 -4 10 -10z m90
-10 c0 -5 -7 -10 -15 -10 -8 0 -15 -7 -15 -16 0 -17 -22 -14 -28 4 -2 7 3 12
12 12 9 0 16 5 16 10 0 6 7 10 15 10 8 0 15 -4 15 -10z m626 -36 c-4 -42 -16
-74 -16 -46 0 7 -18 13 -42 14 l-43 1 45 6 c44 6 45 7 42 39 -2 19 1 32 8 32
8 0 10 -15 6 -46z m-829 19 c-9 -2 -15 -9 -12 -14 4 -5 -1 -9 -9 -9 -8 0 -17
4 -20 9 -7 11 11 20 39 19 17 0 17 -1 2 -5z m250 -19 c-3 -3 -12 -4 -19 -1 -8
3 -5 6 6 6 11 1 17 -2 13 -5z m134 -15 c15 -7 24 -7 35 2 11 9 14 9 14 0 0 -7
4 -10 9 -7 5 4 11 0 14 -6 3 -10 9 -8 24 5 11 9 30 16 44 16 l24 -2 -24 -4
c-13 -3 -31 -13 -40 -23 -38 -44 -297 -169 -507 -245 -71 -26 -145 -53 -164
-60 -284 -102 -764 -202 -1090 -225 -171 -12 -613 -11 -626 3 -15 15 6 19 46
9 22 -5 38 -6 35 -2 -3 4 2 10 10 14 19 7 19 26 0 26 -8 0 -15 -4 -15 -10 0
-5 -10 -10 -22 -10 -19 1 -16 4 15 21 26 14 42 17 55 10 9 -5 39 -8 65 -8 26
1 47 -1 47 -5 0 -8 -23 -12 -50 -10 -8 1 -26 -1 -40 -4 -23 -5 -23 -7 -8 -18
12 -9 56 -12 155 -9 177 4 391 12 423 17 14 1 34 4 45 5 18 3 17 4 -5 12 -16
5 -1 6 41 3 41 -4 69 -2 73 4 4 6 22 8 43 5 27 -5 34 -3 29 6 -6 8 -1 10 17 5
14 -3 34 -1 44 5 15 9 13 10 -14 11 -18 0 -33 5 -33 10 0 6 18 10 40 10 29 0
40 -4 40 -15 0 -19 10 -19 82 1 54 15 78 34 43 34 -15 0 -22 20 -7 20 4 0 18
3 31 7 17 4 22 3 17 -5 -4 -7 -1 -12 6 -12 10 0 9 -3 -2 -10 -21 -13 -10 -18
33 -12 38 4 52 22 18 22 -11 0 -21 9 -25 23 -9 35 -7 87 4 87 6 0 10 -17 10
-37 0 -61 9 -68 72 -56 29 6 68 9 86 6 26 -4 32 -2 32 12 0 11 5 15 15 11 18
-6 45 2 45 15 0 5 -11 9 -25 9 -16 0 -25 6 -25 16 0 13 8 15 35 12 30 -3 34
-1 31 17 -2 11 -1 14 1 8 3 -7 19 -14 36 -14 22 -1 25 -3 12 -6 -43 -11 -61
-43 -24 -43 11 0 17 5 14 10 -3 6 4 10 18 10 14 0 30 7 37 15 8 9 22 12 41 8
25 -5 29 -2 29 16 0 13 6 28 13 34 17 17 59 20 69 5 6 -9 8 -7 6 7 -3 18 3 20
62 22 42 1 58 -1 45 -6 -11 -5 -33 -7 -50 -6 -16 1 -20 0 -7 -2 12 -2 20 -8
17 -12 -2 -5 16 -1 40 7 l45 14 -40 20 c-22 11 -40 26 -40 34 0 18 7 18 38 -5
15 -10 37 -23 49 -30 19 -10 22 -9 17 4 -5 13 -2 15 20 9 16 -4 26 -2 26 5 0
6 -7 11 -15 11 -21 0 -19 17 5 30 16 9 19 8 14 -7 -5 -16 -4 -16 8 -3 7 8 26
16 42 17 20 1 25 -2 15 -8 -19 -12 -2 -11 44 2 20 5 37 14 37 18 0 5 10 12 23
15 22 6 22 7 3 21 -22 17 -14 20 14 5 12 -7 26 -7 42 0 22 10 22 10 -4 5 -15
-3 -29 -1 -32 4 -9 13 35 21 56 10 14 -8 26 -4 51 14 17 13 41 27 51 31 32 11
12 16 -37 10 -37 -5 -47 -11 -47 -25 0 -11 -4 -19 -10 -19 -5 0 -10 9 -10 20
0 11 5 20 10 20 6 0 10 9 10 20 0 23 4 24 31 9z m189 -29 c0 -16 -4 -30 -10
-30 -5 0 -10 14 -10 30 0 17 5 30 10 30 6 0 10 -13 10 -30z m-3880 -10 c0 -5
-4 -10 -10 -10 -5 0 -10 5 -10 10 0 6 5 10 10 10 6 0 10 -4 10 -10z m76 -15
c15 -11 16 -14 4 -15 -9 0 -21 5 -28 12 -9 9 -12 9 -12 0 0 -7 -4 -12 -10 -12
-5 0 -10 7 -10 15 0 19 30 19 56 0z m-116 -55 c0 -22 -4 -40 -10 -40 -5 0 -10
18 -10 40 0 22 5 40 10 40 6 0 10 -18 10 -40z m3567 29 c-12 -7 -15 -15 -8
-27 6 -11 4 -21 -5 -30 -12 -11 -14 -7 -14 22 0 19 -6 36 -12 39 -7 2 3 4 22
5 28 1 31 -1 17 -9z m-3357 -29 c0 -5 -4 -10 -10 -10 -5 0 -10 5 -10 10 0 6 5
10 10 10 6 0 10 -4 10 -10z m2310 0 c8 -5 11 -12 7 -16 -4 -4 -15 0 -24 9 -18
18 -8 23 17 7z m40 0 c0 -5 -2 -10 -4 -10 -3 0 -8 5 -11 10 -3 6 -1 10 4 10 6
0 11 -4 11 -10z m-112 -11 c14 0 13 -2 -3 -9 -11 -5 -27 -9 -35 -9 -12 1 -12
2 -1 6 11 5 11 7 0 15 -11 7 -9 8 4 4 10 -3 26 -6 35 -7z m349 5 c-3 -3 -12
-4 -19 -1 -8 3 -5 6 6 6 11 1 17 -2 13 -5z m1040 -26 c-3 -7 -5 -2 -5 12 0 14
2 19 5 13 2 -7 2 -19 0 -25z m-3429 -5 c39 -3 72 -9 72 -14 0 -5 -36 -9 -80
-9 -63 0 -80 3 -80 14 0 8 -6 16 -12 19 -7 2 -4 2 7 -1 11 -2 53 -6 93 -9z
m1927 7 c13 -6 15 -9 5 -9 -8 0 -22 4 -30 9 -18 12 -2 12 25 0z m398 3 c-7 -2
-13 -11 -13 -19 0 -8 -4 -14 -10 -14 -5 0 -10 4 -10 8 0 5 -12 13 -27 19 -26
10 -24 11 22 11 28 0 44 -2 38 -5z m-206 -9 c-3 -3 -12 -4 -19 -1 -8 3 -5 6 6
6 11 1 17 -2 13 -5z m-257 -13 c0 -5 -9 -11 -20 -14 -13 -3 -20 0 -20 9 0 8 9
14 20 14 11 0 20 -4 20 -9z m1090 -6 c20 -24 7 -26 -25 -5 -27 18 -28 20 -9
20 12 0 27 -7 34 -15z m591 -38 c4 -15 5 -27 2 -27 -9 0 -32 34 -33 48 0 24
24 7 31 -21z m-1551 14 c0 -8 -101 -23 -109 -16 -1 2 0 8 4 14 7 13 105 15
105 2z m-2400 -21 c0 -5 -4 -10 -10 -10 -5 0 -10 5 -10 10 0 6 5 10 10 10 6 0
10 -4 10 -10z m2214 -5 c4 -10 -1 -15 -14 -15 -13 0 -18 5 -14 15 4 8 10 15
14 15 4 0 10 -7 14 -15z m-1491 -2 c3 -5 -8 -9 -24 -10 -16 -1 -29 2 -29 7 0
12 47 13 53 3z m1937 -3 c0 -5 -4 -10 -10 -10 -5 0 -10 5 -10 10 0 6 5 10 10
10 6 0 10 -4 10 -10z m1095 -1 c11 -16 1 -19 -13 -3 -7 8 -8 14 -3 14 5 0 13
-5 16 -11z m-2862 -6 c-13 -2 -33 -2 -45 0 -13 2 -3 4 22 4 25 0 35 -2 23 -4z
m874 -25 c-3 -8 -6 -5 -6 6 -1 11 2 17 5 13 3 -3 4 -12 1 -19z m70 0 c-3 -8
-6 -5 -6 6 -1 11 2 17 5 13 3 -3 4 -12 1 -19z m510 -40 c-2 -13 -4 -3 -4 22 0
25 2 35 4 23 2 -13 2 -33 0 -45z m50 0 c-2 -13 -4 -3 -4 22 0 25 2 35 4 23 2
-13 2 -33 0 -45z m490 40 c-3 -8 -6 -5 -6 6 -1 11 2 17 5 13 3 -3 4 -12 1 -19z
m53 6 c0 -8 -4 -12 -10 -9 -5 3 -10 10 -10 16 0 5 5 9 10 9 6 0 10 -7 10 -16z
m-1580 -14 c0 -6 -33 -9 -82 -8 -71 1 -77 2 -38 8 70 11 120 11 120 0z m-1280
-16 c0 -8 -4 -12 -10 -9 -5 3 -10 10 -10 16 0 5 5 9 10 9 6 0 10 -7 10 -16z
m1450 1 c0 -8 7 -15 15 -15 8 0 15 7 15 15 0 8 3 15 8 15 10 0 35 -41 28 -48
-3 -3 -6 0 -6 6 0 7 -7 12 -15 12 -8 0 -15 -4 -15 -10 0 -18 -29 -10 -35 9 -4
15 -17 21 -48 24 l-42 4 48 1 c36 2 47 -2 47 -13z m2220 5 c0 -5 -4 -10 -10
-10 -5 0 -10 5 -10 10 0 6 5 10 10 10 6 0 10 -4 10 -10z m-1940 -25 c0 -8 -4
-15 -10 -15 -5 0 -10 7 -10 15 0 8 5 15 10 15 6 0 10 -7 10 -15z m1110 -6 c0
-5 -4 -9 -10 -9 -5 0 -10 7 -10 16 0 8 5 12 10 9 6 -3 10 -10 10 -16z m-1597
-6 c-24 -2 -62 -2 -85 0 -24 2 -5 4 42 4 47 0 66 -2 43 -4z m-1076 -35 c-3 -7
-5 -2 -5 12 0 14 2 19 5 13 2 -7 2 -19 0 -25z m279 -46 c-20 -4 -46 21 -46 44
0 14 6 12 31 -12 23 -22 27 -30 15 -32z m-126 -18 c0 -9 -5 -14 -12 -12 -18 6
-21 28 -4 28 9 0 16 -7 16 -16z m1200 -24 c0 -24 5 -40 12 -40 6 0 9 -2 6 -5
-3 -3 -13 -3 -22 1 -18 7 -24 84 -6 84 6 0 10 -18 10 -40z m-117 -34 c4 -9 -3
-16 -19 -19 -18 -3 -24 0 -24 14 0 22 35 26 43 5z m-968 -30 c7 -9 20 -16 29
-16 9 0 16 -7 16 -15 0 -8 -7 -15 -15 -15 -9 0 -18 7 -21 15 -4 8 -15 15 -25
15 -10 0 -19 5 -19 10 0 7 -6 7 -19 0 -11 -5 -31 -10 -44 -10 -21 0 -24 4 -20
21 5 19 11 21 56 16 30 -2 55 -11 62 -21z m38 17 c-7 -2 -19 -2 -25 0 -7 3 -2
5 12 5 14 0 19 -2 13 -5z m1392 -3 c-22 -5 -53 -13 -68 -19 -16 -6 -49 -10
-75 -9 l-47 1 43 4 c23 2 42 8 42 13 0 8 49 16 115 17 24 1 22 -1 -10 -7z
m210 3 c31 -5 35 -8 20 -13 -11 -4 -24 -4 -30 0 -5 5 -21 10 -35 13 -40 7 1 7
45 0z m129 -8 c-7 -16 -39 -20 -49 -6 -3 5 3 12 12 14 34 9 42 7 37 -8z
m-1222 -10 c0 -5 -5 -11 -11 -13 -6 -2 -11 4 -11 13 0 9 5 15 11 13 6 -2 11
-8 11 -13z m1048 -5 c0 -5 -22 -7 -52 -3 -72 8 -73 13 -5 13 32 0 57 -4 57
-10z m-990 -25 c0 -8 -4 -15 -9 -15 -13 0 -22 16 -14 24 11 11 23 6 23 -9z
m800 5 c0 -12 -8 -12 -35 0 -18 8 -17 9 8 9 15 1 27 -3 27 -9z m73 3 c-7 -2
-21 -2 -30 0 -10 3 -4 5 12 5 17 0 24 -2 18 -5z m-1353 -43 c0 -5 -2 -10 -4
-10 -3 0 -8 5 -11 10 -3 6 -1 10 4 10 6 0 11 -4 11 -10z m647 -52 c-2 -13 -4
-3 -4 22 0 25 2 35 4 23 2 -13 2 -33 0 -45z m70 0 c-2 -13 -4 -3 -4 22 0 25 2
35 4 23 2 -13 2 -33 0 -45z m-710 -10 c-3 -8 -6 -5 -6 6 -1 11 2 17 5 13 3 -3
4 -12 1 -19z m153 -24 c0 -2 -7 -4 -15 -4 -8 0 -15 4 -15 10 0 5 7 7 15 4 8
-4 15 -8 15 -10z m740 -14 c0 -5 -4 -10 -10 -10 -5 0 -10 5 -10 10 0 6 5 10
10 10 6 0 10 -4 10 -10z m-260 -35 c0 -9 -9 -15 -25 -15 -18 0 -23 4 -19 15 4
8 15 15 25 15 10 0 19 -7 19 -15z m300 -5 c0 -5 -9 -10 -21 -10 -11 0 -17 5
-14 10 3 6 13 10 21 10 8 0 14 -4 14 -10z m135 2 c14 -4 5 -8 -30 -13 -32 -4
-56 -2 -67 6 -15 10 -10 12 30 13 26 0 56 -2 67 -6z m1091 -28 c-3 -9 -6 -20
-6 -25 0 -4 -7 -6 -15 -3 -24 9 -19 44 6 44 15 0 19 -4 15 -16z m-936 -20 l35
-13 -41 0 c-45 -1 -104 16 -104 29 0 11 62 1 110 -16z m-250 12 c0 -3 -4 -8
-10 -11 -5 -3 -10 -1 -10 4 0 6 5 11 10 11 6 0 10 -2 10 -4z m60 -6 c0 -5 -2
-10 -4 -10 -3 0 -8 5 -11 10 -3 6 -1 10 4 10 6 0 11 -4 11 -10z m300 -16 c0
-2 -9 -4 -21 -4 -11 0 -18 4 -14 10 5 8 35 3 35 -6z m870 6 c0 -5 -4 -10 -10
-10 -5 0 -10 5 -10 10 0 6 5 10 10 10 6 0 10 -4 10 -10z m-1195 -10 c3 -5 -3
-10 -15 -10 -12 0 -18 5 -15 10 3 6 10 10 15 10 5 0 12 -4 15 -10z m380 -16
c17 -4 20 -12 17 -50 -5 -58 -32 -62 -32 -5 0 34 -4 41 -27 49 l-28 10 25 1
c14 0 34 -2 45 -5z m865 2 c0 -2 -7 -6 -15 -10 -8 -3 -15 -1 -15 4 0 6 7 10
15 10 8 0 15 -2 15 -4z m-1037 -13 c-19 -4 -23 -11 -25 -46 -1 -39 -2 -39 -5
-9 -6 46 2 62 29 61 l23 -2 -22 -4z m250 0 c-7 -2 -19 -2 -25 0 -7 3 -2 5 12
5 14 0 19 -2 13 -5z m-753 -13 c0 -5 18 -10 40 -10 33 0 40 -3 40 -20 0 -17
-7 -20 -44 -20 -54 0 -120 25 -93 35 9 4 24 2 32 -5 9 -7 19 -9 23 -5 4 4 1
10 -5 12 -15 6 -17 23 -3 23 6 0 10 -4 10 -10z m430 -34 c0 -34 -4 -46 -17
-49 -30 -8 49 -6 100 2 26 4 47 5 47 1 0 -12 -103 -18 -209 -13 -55 3 -101 10
-101 14 0 5 27 6 59 3 33 -4 71 -4 85 0 23 6 26 12 26 46 0 22 2 40 5 40 3 0
5 -20 5 -44z m500 29 c0 -8 -4 -15 -10 -15 -5 0 -10 7 -10 15 0 8 5 15 10 15
6 0 10 -7 10 -15z m390 -25 c-20 -13 -33 -13 -25 0 3 6 14 10 23 10 15 0 15
-2 2 -10z m-433 -32 c-3 -8 -6 -5 -6 6 -1 11 2 17 5 13 3 -3 4 -12 1 -19z
m-744 -15 c-7 -2 -19 -2 -25 0 -7 3 -2 5 12 5 14 0 19 -2 13 -5z m711 -3 c-3
-2 -33 -8 -67 -13 -34 -4 -81 -10 -104 -13 -35 -5 -43 -3 -43 9 0 12 14 17 58
19 80 5 161 4 156 -2z m56 -10 c0 -5 -15 -10 -32 -9 -28 0 -30 2 -13 9 28 12
45 12 45 0z m127 4 c-3 -3 -12 -4 -19 -1 -8 3 -5 6 6 6 11 1 17 -2 13 -5z
m-437 -14 c0 -5 -21 -9 -47 -9 -43 1 -45 2 -18 9 44 11 65 11 65 0z"/>
<path d="M2882 4275 c0 -16 2 -22 5 -12 2 9 2 23 0 30 -3 6 -5 -1 -5 -18z"/>
<path d="M6800 4295 c0 -3 5 -14 12 -24 9 -15 8 -22 -5 -36 -19 -18 -23 -85
-6 -85 6 0 8 9 4 20 -4 11 -2 20 4 20 6 0 11 -4 11 -10 0 -5 7 -10 15 -10 18
0 20 -16 3 -23 -7 -3 -1 -6 15 -6 15 -1 26 -6 25 -11 -2 -6 24 -22 57 -35 71
-29 65 -29 65 -10 0 8 9 15 20 15 11 0 20 6 20 14 0 23 -22 31 -32 12 -12 -21
-38 -21 -38 1 0 16 -1 16 -16 2 -20 -21 -62 -13 -70 14 -8 25 -28 47 -43 47
-15 0 -14 20 2 21 6 0 3 4 -8 9 -16 7 -14 9 15 10 19 0 53 1 75 2 22 1 56 -2
75 -6 24 -5 18 -1 -18 13 -29 11 -77 25 -107 31 -30 6 -55 16 -55 21 0 5 -4 9
-10 9 -5 0 -10 -2 -10 -5z m95 -45 c3 -5 1 -10 -4 -10 -6 0 -11 5 -11 10 0 6
2 10 4 10 3 0 8 -4 11 -10z"/>
<path d="M7050 4210 c8 -5 24 -10 34 -10 26 0 18 6 -19 14 -22 5 -26 4 -15 -4z"/>
<path d="M7003 4193 c-35 -3 -43 -8 -43 -24 0 -15 7 -19 35 -19 49 0 88 19 74
37 -6 7 -14 12 -18 11 -3 -1 -25 -3 -48 -5z"/>
<path d="M7118 4183 c7 -3 16 -2 19 1 4 3 -2 6 -13 5 -11 0 -14 -3 -6 -6z"/>
<path d="M7070 4155 l-25 -15 35 1 c53 2 90 10 90 20 0 5 -7 9 -15 9 -8 0 -15
-4 -15 -10 0 -5 -7 -10 -16 -10 -8 0 -12 5 -9 10 9 15 -16 12 -45 -5z"/>
<path d="M7206 4142 c-3 -6 3 -12 15 -15 12 -3 19 -1 16 6 -5 15 -24 20 -31 9z"/>
<path d="M2800 4130 c0 -6 7 -10 15 -10 8 0 15 2 15 4 0 2 -7 6 -15 10 -8 3
-15 1 -15 -4z"/>
<path d="M6918 4133 c7 -3 16 -2 19 1 4 3 -2 6 -13 5 -11 0 -14 -3 -6 -6z"/>
<path d="M2649 4040 c-31 -25 -18 -25 23 0 20 12 26 20 17 20 -9 0 -27 -9 -40
-20z"/>
<path d="M2535 3970 c-3 -5 -2 -10 4 -10 5 0 13 5 16 10 3 6 2 10 -4 10 -5 0
-13 -4 -16 -10z"/>
<path d="M2196 3935 c-11 -8 -15 -19 -10 -26 4 -8 3 -10 -4 -5 -7 4 -14 -4
-18 -21 -4 -15 -11 -33 -16 -40 -5 -7 -7 -17 -4 -22 4 -6 1 -19 -5 -29 -9 -14
-9 -24 -1 -38 10 -17 12 -15 13 16 3 54 4 56 15 71 5 8 16 26 23 41 8 15 18
25 24 21 8 -5 26 13 27 28 0 14 -27 16 -44 4z"/>
<path d="M7510 3911 c5 -11 10 -35 10 -55 0 -42 17 -57 22 -19 2 16 -5 43 -15
61 -20 34 -35 46 -17 13z"/>
<path d="M6350 3120 c-12 -8 -11 -10 8 -10 12 0 22 5 22 10 0 13 -11 13 -30 0z"/>
<path d="M6272 2624 c-10 -12 -10 -14 2 -14 17 0 30 16 19 23 -5 3 -14 -1 -21
-9z"/>
<path d="M4230 2587 c5 -5 131 -20 268 -31 51 -5 62 -3 62 10 0 12 -12 14 -67
12 -38 -2 -113 1 -168 6 -55 4 -98 6 -95 3z"/>
<path d="M6341 2561 c-9 -16 -7 -17 14 -13 28 5 33 17 10 26 -8 3 -19 -2 -24
-13z"/>
<path d="M4688 2533 c7 -3 16 -2 19 1 4 3 -2 6 -13 5 -11 0 -14 -3 -6 -6z"/>
<path d="M6245 2400 c-4 -6 -16 -8 -28 -5 -21 5 -21 5 1 -7 17 -8 25 -9 34 0
6 6 9 14 6 17 -3 4 -9 1 -13 -5z"/>
<path d="M6170 2365 c-16 -19 -1 -19 24 0 16 12 17 15 4 15 -8 0 -21 -7 -28
-15z"/>
<path d="M5533 2336 c-13 -6 -23 -14 -23 -17 0 -11 61 5 61 16 1 14 -12 14
-38 1z"/>
<path d="M6135 2340 c-3 -5 -1 -10 4 -10 6 0 11 5 11 10 0 6 -2 10 -4 10 -3 0
-8 -4 -11 -10z"/>
<path d="M7306 3331 c-4 -7 -5 -15 -2 -18 9 -9 19 4 14 18 -4 11 -6 11 -12 0z"/>
<path d="M2230 2990 c0 -5 5 -10 11 -10 5 0 7 5 4 10 -3 6 -8 10 -11 10 -2 0
-4 -4 -4 -10z"/>
<path d="M2190 2965 c0 -8 7 -15 15 -15 8 0 15 7 15 15 0 8 -7 15 -15 15 -8 0
-15 -7 -15 -15z"/>
<path d="M7620 3055 c-12 -19 -25 -35 -30 -35 -10 0 -8 -28 4 -75 13 -51 16
-58 23 -51 10 10 39 196 30 196 -3 0 -15 -16 -27 -35z m-10 -85 c0 -11 -2 -20
-4 -20 -2 0 -6 9 -9 20 -3 11 -1 20 4 20 5 0 9 -9 9 -20z"/>
<path d="M7460 2660 c0 -13 7 -20 20 -20 13 0 20 7 20 20 0 13 -7 20 -20 20
-13 0 -20 -7 -20 -20z"/>
<path d="M7400 2419 c0 -5 5 -7 10 -4 6 3 10 8 10 11 0 2 -4 4 -10 4 -5 0 -10
-5 -10 -11z"/>
<path d="M7376 2802 c-3 -6 -1 -14 5 -17 14 -9 20 -2 10 14 -6 8 -11 9 -15 3z"/>
<path d="M7343 2764 c-15 -16 -17 -34 -4 -34 10 0 26 39 19 45 -1 2 -9 -3 -15
-11z"/>
<path d="M6977 2474 c-4 -4 -7 -18 -7 -31 0 -19 5 -23 29 -23 22 0 30 5 33 23
3 13 0 24 -6 24 -6 0 -18 4 -27 7 -8 4 -18 3 -22 0z"/>
<path d="M6726 2315 c-19 -14 -17 -15 18 -15 33 0 37 2 26 15 -15 18 -20 18
-44 0z"/>
<path d="M5448 1873 c6 -2 18 -2 25 0 6 3 1 5 -13 5 -14 0 -19 -2 -12 -5z"/>
<path d="M7291 2287 c-6 -12 -9 -14 -7 -5 4 12 1 15 -10 11 -18 -7 -19 -43 -1
-43 8 0 24 11 36 24 18 19 19 25 8 29 -9 3 -19 -4 -26 -16z"/>
<path d="M7193 2178 c0 -21 4 -38 9 -38 9 0 9 15 -2 50 -7 22 -8 20 -7 -12z"/>
<path d="M6900 1890 c-8 -5 -10 -10 -5 -10 6 0 17 5 25 10 8 5 11 10 5 10 -5
0 -17 -5 -25 -10z"/>
<path d="M6612 1630 c-7 -11 -10 -20 -6 -20 7 0 34 27 34 34 0 13 -16 5 -28
-14z"/>
<path d="M6314 1576 c-17 -6 -37 -16 -45 -22 -8 -6 -39 -23 -69 -38 -30 -16
-64 -36 -75 -46 -11 -9 -31 -20 -45 -23 -14 -4 -35 -15 -47 -27 -12 -11 -32
-20 -44 -20 -17 0 -19 -3 -10 -14 10 -11 3 -14 -36 -14 -44 1 -131 -27 -121
-38 3 -2 21 3 41 11 21 8 37 11 37 6 0 -12 29 -23 42 -15 7 5 4 12 -7 21 -17
12 -17 13 -2 13 9 0 17 -4 17 -10 0 -18 49 -11 70 10 36 36 63 22 40 -20 -8
-15 -17 -18 -45 -13 -24 4 -43 0 -61 -12 -23 -15 -27 -15 -43 -1 -22 20 -41
20 -41 1 0 -9 -7 -18 -15 -21 -8 -4 -15 -15 -15 -25 0 -10 -6 -19 -14 -19 -8
0 -22 -3 -32 -7 -12 -4 -15 -3 -10 5 5 8 -2 12 -21 12 l-28 -1 27 -15 c17 -9
42 -12 68 -9 26 3 39 1 35 -5 -3 -6 1 -7 9 -4 9 3 16 10 16 16 0 5 9 6 20 3
11 -4 20 -2 20 4 0 6 7 11 16 11 18 0 156 59 164 70 3 4 29 15 58 24 29 10 59
24 66 32 8 8 22 14 32 14 14 0 14 3 4 15 -18 22 -6 29 29 17 26 -9 29 -8 24 6
-4 9 -11 20 -17 24 -6 5 -2 8 10 8 17 0 21 7 23 47 3 57 11 72 11 20 0 -19 3
-42 6 -50 3 -8 -3 -22 -12 -32 -17 -17 -17 -17 6 -10 14 4 36 16 49 26 13 11
29 19 35 19 6 0 19 9 28 19 28 33 -17 57 -49 26 -14 -14 -13 -16 8 -12 13 2
18 2 12 0 -7 -3 -13 -8 -13 -13 0 -4 -7 -10 -15 -14 -12 -4 -15 3 -15 37 0 30
3 38 10 27 7 -12 12 -12 22 -2 9 9 9 12 -2 13 -8 0 -28 2 -45 3 -16 2 -44 -2
-61 -8z m3 -47 c1 -12 -3 -19 -10 -16 -17 5 -21 37 -5 37 8 0 14 -9 15 -21z
m-44 -36 c-7 -2 -13 -11 -13 -18 0 -7 -7 -16 -16 -19 -28 -11 -82 -6 -87 7 -3
9 6 11 34 9 26 -3 44 1 54 12 9 9 22 16 28 15 9 0 8 -2 0 -6z m-189 -81 c-4
-14 2 -17 38 -17 29 0 42 4 41 13 -3 14 16 16 36 3 11 -7 10 -11 -7 -20 -11
-6 -31 -11 -44 -11 -13 0 -34 -7 -46 -16 -20 -14 -22 -14 -24 3 -5 59 -4 72 3
68 4 -3 5 -13 3 -23z m53 22 c-3 -3 -12 -4 -19 -1 -8 3 -5 6 6 6 11 1 17 -2
13 -5z m-127 -119 c-7 -9 -15 -13 -17 -11 -7 7 7 26 19 26 6 0 6 -6 -2 -15z"/>
<path d="M5757 1304 c6 -17 44 -15 51 4 2 8 -7 12 -27 12 -23 0 -29 -4 -24
-16z"/>
<path d="M3823 1210 c0 -16 4 -30 9 -30 4 0 8 14 8 30 0 17 -4 30 -8 30 -5 0
-9 -13 -9 -30z"/>
<path d="M3740 1220 c0 -5 5 -10 10 -10 6 0 10 5 10 10 0 6 -4 10 -10 10 -5 0
-10 -4 -10 -10z"/>
<path d="M5400 1115 c0 -8 5 -15 10 -15 6 0 10 7 10 15 0 8 -4 15 -10 15 -5 0
-10 -7 -10 -15z"/>
<path d="M2350 2191 c0 -6 6 -14 13 -18 8 -4 22 -20 32 -35 19 -31 41 -38 30
-10 -5 14 -4 15 6 5 15 -15 29 -17 29 -4 0 11 -39 26 -59 22 -7 -1 -11 1 -8 6
3 4 -6 16 -19 26 -13 10 -24 13 -24 8z"/>
<path d="M2470 2109 c0 -6 -7 -9 -15 -6 -21 9 -28 -9 -10 -26 8 -9 15 -19 15
-24 0 -5 9 -16 20 -25 22 -20 80 -20 80 0 0 7 -4 10 -10 7 -5 -3 -10 -2 -10 4
0 19 23 24 32 7 5 -9 18 -16 28 -16 34 0 22 -20 -12 -21 -18 -1 -38 -1 -45 0
-18 2 -11 -38 10 -57 18 -16 18 -15 12 11 -8 29 3 34 34 17 13 -6 29 -4 54 8
38 18 44 37 11 37 -10 0 -30 10 -44 23 -14 12 -33 22 -42 22 -10 0 -18 6 -18
13 0 6 -14 -3 -30 -21 -18 -19 -30 -26 -30 -18 0 8 4 16 9 18 5 2 -1 16 -15
31 -13 15 -24 23 -24 16z"/>
<path d="M2500 2100 c20 -13 33 -13 25 0 -3 6 -14 10 -23 10 -15 0 -15 -2 -2
-10z"/>
<path d="M2700 2000 c0 -5 -7 -10 -17 -10 -9 0 -14 -3 -10 -6 8 -8 47 5 47 17
0 5 -4 9 -10 9 -5 0 -10 -4 -10 -10z"/>
<path d="M5368 1923 c7 -3 16 -2 19 1 4 3 -2 6 -13 5 -11 0 -14 -3 -6 -6z"/>
<path d="M3108 1863 c7 -3 16 -2 19 1 4 3 -2 6 -13 5 -11 0 -14 -3 -6 -6z"/>
<path d="M2713 1809 c-2 -23 3 -25 10 -4 4 8 3 16 -1 19 -4 3 -9 -4 -9 -15z"/>
<path d="M3580 1776 c0 -2 7 -6 15 -10 8 -3 15 -1 15 4 0 6 -7 10 -15 10 -8 0
-15 -2 -15 -4z"/>
<path d="M3049 1539 c-10 -6 -8 -9 9 -9 12 0 25 -6 28 -14 5 -14 34 -11 34 3
0 12 -58 29 -71 20z"/>
<path d="M6245 1789 c-4 -6 -4 -13 -1 -16 8 -8 36 5 36 17 0 13 -27 13 -35 -1z"/>
<path d="M6028 1693 c7 -3 16 -2 19 1 4 3 -2 6 -13 5 -11 0 -14 -3 -6 -6z"/>
<path d="M5565 1555 c-22 -8 -31 -13 -20 -13 11 0 36 6 55 13 45 17 18 17 -35
0z"/>
</g>
</svg>
